<svg xmlns="http://www.w3.org/2000/svg" width="19" height="19" viewBox="0 0 19 19" fill="none">
  <g clip-path="url(#clip0_1905_4484)">
    <rect width="17.5" height="17.5" transform="translate(0.833008 0.669434)" fill="#6E5FED"/>
    <path d="M3.75 12.9587V14.9288C3.75 15.1103 3.89257 15.2528 4.07403 15.2528H6.04413C6.12837 15.2528 6.21262 15.2204 6.27095 15.1556L12.64 8.79243C13.0308 8.40196 13.031 7.76854 12.6403 7.37789L11.6246 6.36221C11.2341 5.97169 10.6009 5.97169 10.2104 6.36221L3.84721 12.7254C3.7824 12.7902 3.75 12.868 3.75 12.9587ZM15.2271 6.20596C15.4799 5.95321 15.4799 5.54494 15.2271 5.29219L13.7107 3.77574C13.4579 3.523 13.0496 3.523 12.7969 3.77574L12.3181 4.25458C11.9275 4.6451 11.9275 5.27827 12.3181 5.66879L13.3341 6.6848C13.7246 7.07532 14.3577 7.07532 14.7483 6.6848L15.2271 6.20596Z" fill="white"/>
  </g>
  <defs>
    <clipPath id="clip0_1905_4484">
      <rect width="17.5" height="17.5" fill="white" transform="translate(0.833008 0.669434)"/>
    </clipPath>
  </defs>
</svg>