<svg width="29" height="30" viewBox="0 0 29 30" fill="none" xmlns="http://www.w3.org/2000/svg">
<g id="face-happy">
<path id="Icon" d="M18.2492 11.4445H18.2611M11.1381 11.4445H11.1499M26.5455 15C26.5455 21.5456 21.2392 26.8519 14.6936 26.8519C8.14805 26.8519 2.8418 21.5456 2.8418 15C2.8418 8.45445 8.14805 3.14819 14.6936 3.14819C21.2392 3.14819 26.5455 8.45445 26.5455 15ZM18.8418 11.4445C18.8418 11.7718 18.5765 12.0371 18.2492 12.0371C17.9219 12.0371 17.6566 11.7718 17.6566 11.4445C17.6566 11.1172 17.9219 10.8519 18.2492 10.8519C18.5765 10.8519 18.8418 11.1172 18.8418 11.4445ZM11.7307 11.4445C11.7307 11.7718 11.4654 12.0371 11.1381 12.0371C10.8108 12.0371 10.5455 11.7718 10.5455 11.4445C10.5455 11.1172 10.8108 10.8519 11.1381 10.8519C11.4654 10.8519 11.7307 11.1172 11.7307 11.4445ZM14.6936 20.5186C17.6572 20.5186 20.027 18.3461 20.027 16.3704H9.36031C9.36031 18.3461 11.7301 20.5186 14.6936 20.5186Z" stroke="white" stroke-width="2" stroke-linecap="round" stroke-linejoin="round"/>
</g>
</svg>
