<svg xmlns="http://www.w3.org/2000/svg" width="32" height="33" viewBox="0 0 32 33" fill="none">
  <g clip-path="url(#clip0_3523_9604)">
    <path d="M27.4248 18.78H28.9548V26.4H27.4248V18.78Z" fill="#6E5FED"/>
    <path d="M25.9053 26.3999H27.4253V29.4499H25.9053V26.3999Z" fill="#6E5FED"/>
    <path d="M25.9053 15.73H27.4253V18.78H25.9053V15.73Z" fill="#6E5FED"/>
    <path d="M24.3848 29.45H25.9048V30.97H24.3848V29.45Z" fill="#6E5FED"/>
    <path d="M24.3848 14.21H25.9048V15.73H24.3848V14.21Z" fill="#6E5FED"/>
    <path d="M22.8545 18.78H24.3845V20.31H22.8545V18.78Z" fill="#6E5FED"/>
    <path d="M22.8545 12.6899H24.3845V14.2099H22.8545V12.6899Z" fill="#6E5FED"/>
    <path d="M7.61523 30.97H24.3852V32.5H7.61523V30.97Z" fill="#6E5FED"/>
    <path d="M19.8047 11.1599H22.8547V12.6899H19.8047V11.1599Z" fill="#6E5FED"/>
    <path d="M18.2852 15.73H19.8052V17.26H18.2852V15.73Z" fill="#6E5FED"/>
    <path d="M15.2354 20.3101H16.7654V21.8301H15.2354V20.3101Z" fill="#6E5FED"/>
    <path d="M12.1953 15.73H13.7153V17.26H12.1953V15.73Z" fill="#6E5FED"/>
    <path d="M13.715 2.02H18.285V11.16H19.805V2.02H21.335V0.5H10.665V2.02H12.195V11.16H13.715V2.02Z" fill="#6E5FED"/>
    <path d="M9.14453 11.1599H12.1945V12.6899H9.14453V11.1599Z" fill="#6E5FED"/>
    <path d="M9.14453 18.78H10.6645V20.31H9.14453V18.78Z" fill="#6E5FED"/>
    <path d="M7.61473 27.9201H9.14473V29.4501H22.8547V27.9201H24.3847V26.4001H25.9047V23.3501H24.3847V21.8301H21.3347V23.3501H19.8047V24.8801H15.2347V23.3501H12.1947V21.8301H7.61473V23.3501H6.09473V26.4001H7.61473V27.9201Z" fill="#6E5FED"/>
    <path d="M7.61523 12.6899H9.14523V14.2099H7.61523V12.6899Z" fill="#6E5FED"/>
    <path d="M6.09473 29.45H7.61473V30.97H6.09473V29.45Z" fill="#6E5FED"/>
    <path d="M6.09473 14.21H7.61473V15.73H6.09473V14.21Z" fill="#6E5FED"/>
    <path d="M4.5752 26.3999H6.0952V29.4499H4.5752V26.3999Z" fill="#6E5FED"/>
    <path d="M4.5752 15.73H6.0952V18.78H4.5752V15.73Z" fill="#6E5FED"/>
    <path d="M3.04492 18.78H4.57492V26.4H3.04492V18.78Z" fill="#6E5FED"/>
  </g>
  <defs>
    <clipPath id="clip0_3523_9604">
      <rect width="32" height="32" fill="white" transform="translate(0 0.5)"/>
    </clipPath>
  </defs>
</svg>