<svg xmlns="http://www.w3.org/2000/svg" width="32" height="33" viewBox="0 0 32 33" fill="none">
  <g clip-path="url(#clip0_3523_9532)">
    <path d="M30.4754 12.6899H28.9554V15.7399H27.4254V14.2199H25.9054V12.6899H28.9554V11.1699H25.9054V9.63989H24.3854V15.7399H22.8554V17.2599H9.14539V15.7399H7.61539V9.63989H6.10039V11.1699H3.04539V12.6899H6.10039V14.2199H4.57539V15.7399H3.04539V12.6899H1.52539V17.2599H3.04539V18.7899H6.10039V29.4499H7.62039V30.9799H9.15039V32.4999H22.8604V30.9799H24.3904V29.4499H25.9104V18.7899H28.9604V17.2599H30.4804L30.4754 12.6899ZM24.3854 21.8399H7.61539V20.3099H24.3854V21.8399Z" fill="#6E5FED"/>
    <path d="M22.8555 8.12012H24.3855V9.64012H22.8555V8.12012Z" fill="#6E5FED"/>
    <path d="M22.8555 2.03003H24.3855V5.07003H22.8555V2.03003Z" fill="#6E5FED"/>
    <path d="M21.335 5.07007H22.855V8.12007H21.335V5.07007Z" fill="#6E5FED"/>
    <path d="M19.8057 0.5H22.8557V2.03H19.8057V0.5Z" fill="#6E5FED"/>
    <path d="M19.8057 11.1699H21.3357V12.6899H19.8057V11.1699Z" fill="#6E5FED"/>
    <path d="M18.2852 2.03003H19.8052V5.07003H18.2852V2.03003Z" fill="#6E5FED"/>
    <path d="M16.7656 5.07007H18.2856V6.60007H16.7656V5.07007Z" fill="#6E5FED"/>
    <path d="M15.2358 15.7399H16.7658V14.2199H18.2858V12.6899H13.7158V14.2199H15.2358V15.7399Z" fill="#6E5FED"/>
    <path d="M15.2354 6.6001H16.7654V8.1201H15.2354V6.6001Z" fill="#6E5FED"/>
    <path d="M13.7158 5.07007H15.2358V6.60007H13.7158V5.07007Z" fill="#6E5FED"/>
    <path d="M12.1855 2.03003H13.7155V5.07003H12.1855V2.03003Z" fill="#6E5FED"/>
    <path d="M10.665 11.1699H12.185V12.6899H10.665V11.1699Z" fill="#6E5FED"/>
    <path d="M9.14551 0.5H12.1855V2.03H9.14551V0.5Z" fill="#6E5FED"/>
    <path d="M9.14551 5.07007H10.6655V8.12007H9.14551V5.07007Z" fill="#6E5FED"/>
    <path d="M7.61523 8.12012H9.14523V9.64012H7.61523V8.12012Z" fill="#6E5FED"/>
    <path d="M7.61523 2.03003H9.14523V5.07003H7.61523V2.03003Z" fill="#6E5FED"/>
  </g>
  <defs>
    <clipPath id="clip0_3523_9532">
      <rect width="32" height="32" fill="white" transform="translate(0 0.5)"/>
    </clipPath>
  </defs>
</svg>