<svg xmlns="http://www.w3.org/2000/svg" width="32" height="33" viewBox="0 0 32 33" fill="none">
  <g clip-path="url(#clip0_3523_9509)">
    <path d="M30.4704 18.7801V8.12012H28.9504V17.2601H27.4304V15.7401H25.9004V27.9301H27.4304V26.4001H30.4704V24.8801H32.0004V18.7801H30.4704Z" fill="#6E5FED"/>
    <path d="M24.3799 12.6899H25.8999V15.7399H24.3799V12.6899Z" fill="#6E5FED"/>
    <path d="M6.08984 27.9299V29.4499H7.61984V30.9799H9.13984V29.4499H22.8498V30.9799H24.3798V29.4499H25.8998V27.9299H6.08984Z" fill="#6E5FED"/>
    <path d="M22.8496 18.78H24.3796V21.83H22.8496V18.78Z" fill="#6E5FED"/>
    <path d="M22.8496 11.1699H24.3796V12.6899H22.8496V11.1699Z" fill="#6E5FED"/>
    <path d="M19.8096 17.26H22.8496V18.78H19.8096V17.26Z" fill="#6E5FED"/>
    <path d="M9.13965 30.98H22.8497V32.5H9.13965V30.98Z" fill="#6E5FED"/>
    <path d="M19.8096 21.8301H22.8496V23.3601H19.8096V21.8301Z" fill="#6E5FED"/>
    <path d="M18.2803 18.78H19.8103V21.83H18.2803V18.78Z" fill="#6E5FED"/>
    <path d="M18.2803 2.02002H19.8103V3.55002H18.2803V2.02002Z" fill="#6E5FED"/>
    <path d="M13.71 24.8799H18.28V26.3999H13.71V24.8799Z" fill="#6E5FED"/>
    <path d="M13.71 0.5H18.28V2.02H13.71V0.5Z" fill="#6E5FED"/>
    <path d="M12.1904 18.78H13.7104V21.83H12.1904V18.78Z" fill="#6E5FED"/>
    <path d="M12.1904 2.02002H13.7104V3.55002H12.1904V2.02002Z" fill="#6E5FED"/>
    <path d="M9.13965 17.26H12.1896V18.78H9.13965V17.26Z" fill="#6E5FED"/>
    <path d="M22.8497 11.17V9.64005H16.7596V5.07005H18.2796V3.55005H13.7096V5.07005H15.2296V9.64005H9.13965V11.17H22.8497Z" fill="#6E5FED"/>
    <path d="M9.13965 21.8301H12.1896V23.3601H9.13965V21.8301Z" fill="#6E5FED"/>
    <path d="M7.62012 18.78H9.14012V21.83H7.62012V18.78Z" fill="#6E5FED"/>
    <path d="M7.62012 11.1699H9.14012V12.6899H7.62012V11.1699Z" fill="#6E5FED"/>
    <path d="M6.08984 12.6899H7.61984V15.7399H6.08984V12.6899Z" fill="#6E5FED"/>
    <path d="M6.09 15.7401H4.57V17.2601H3.04V8.12012H1.52V18.7801H0V24.8801H1.52V26.4001H4.57V27.9301H6.09V15.7401Z" fill="#6E5FED"/>
  </g>
  <defs>
    <clipPath id="clip0_3523_9509">
      <rect width="32" height="32" fill="white" transform="translate(0 0.5)"/>
    </clipPath>
  </defs>
</svg>