<svg xmlns="http://www.w3.org/2000/svg" width="32" height="33" viewBox="0 0 32 33" fill="none">
  <g clip-path="url(#clip0_3523_9479)">
    <path d="M28.9502 29.45H32.0002V30.98H28.9502V29.45Z" fill="#6E5FED"/>
    <path d="M27.4297 30.98H28.9497V32.5H27.4297V30.98Z" fill="#6E5FED"/>
    <path d="M27.4304 20.31H25.9004V21.83H27.4304V23.36H28.9504V15.74H27.4304V20.31Z" fill="#6E5FED"/>
    <path d="M24.3799 29.45H27.4299V30.98H24.3799V29.45Z" fill="#6E5FED"/>
    <path d="M25.9004 14.22H27.4304V15.74H25.9004V14.22Z" fill="#6E5FED"/>
    <path d="M21.3301 27.9299H24.3801V29.4499H21.3301V27.9299Z" fill="#6E5FED"/>
    <path d="M22.8604 21.8301H24.3804V20.3101H25.9003V18.7901H24.3804V14.2201H25.9003V12.6901H24.3804V8.12012H22.8604V21.8301Z" fill="#6E5FED"/>
    <path d="M19.8096 30.98H21.3296V32.5H19.8096V30.98Z" fill="#6E5FED"/>
    <path d="M19.8096 18.79H21.3296V20.31H19.8096V18.79Z" fill="#6E5FED"/>
    <path d="M19.8096 15.74H21.3296V17.26H19.8096V15.74Z" fill="#6E5FED"/>
    <path d="M18.2803 27.9299H19.8103V30.9799H18.2803V27.9299Z" fill="#6E5FED"/>
    <path d="M13.71 24.8799H19.81V26.4099H13.71V24.8799Z" fill="#6E5FED"/>
    <path d="M18.2803 2.02002H19.8103V3.55002H18.2803V2.02002Z" fill="#6E5FED"/>
    <path d="M15.2402 0.5H18.2802V2.02H15.2402V0.5Z" fill="#6E5FED"/>
    <path d="M19.81 9.64012H18.28V8.12012H15.24V9.64012H16.76V11.1701H15.24V9.64012H13.71V12.6901H15.24V14.2201H18.28V12.6901H19.81V9.64012Z" fill="#6E5FED"/>
    <path d="M13.71 27.9299H15.24V30.9799H13.71V27.9299Z" fill="#6E5FED"/>
    <path d="M10.6602 23.3601H12.1902V24.8801H13.7102V23.3601H19.8102V24.8801H21.3302V23.3601H22.8602V21.8301H10.6602V23.3601Z" fill="#6E5FED"/>
    <path d="M13.71 2.02002H15.24V3.55002H13.71V2.02002Z" fill="#6E5FED"/>
    <path d="M12.1904 30.98H13.7104V32.5H12.1904V30.98Z" fill="#6E5FED"/>
    <path d="M9.13965 27.9299H12.1896V29.4499H9.13965V27.9299Z" fill="#6E5FED"/>
    <path d="M13.7102 5.07005V3.55005H12.1902V5.07005H10.6602V8.12005H12.1902V6.60005H21.3302V8.12005H22.8602V5.07005H21.3302V3.55005H19.8102V5.07005H13.7102Z" fill="#6E5FED"/>
    <path d="M10.6601 8.12012H9.14012V12.6901H7.62012V14.2201H9.14012V18.7901H7.62012V20.3101H9.14012V21.8301H10.6601V8.12012Z" fill="#6E5FED"/>
    <path d="M6.08984 29.45H9.13984V30.98H6.08984V29.45Z" fill="#6E5FED"/>
    <path d="M6.08984 14.22H7.61984V15.74H6.08984V14.22Z" fill="#6E5FED"/>
    <path d="M4.57031 30.98H6.09031V32.5H4.57031V30.98Z" fill="#6E5FED"/>
    <path d="M6.09031 15.74H4.57031V23.36H6.09031V21.83H7.62031V20.31H6.09031V15.74Z" fill="#6E5FED"/>
    <path d="M1.51953 29.45H4.56953V30.98H1.51953V29.45Z" fill="#6E5FED"/>
    <path d="M0 30.98H1.52V32.5H0V30.98Z" fill="#6E5FED"/>
  </g>
  <defs>
    <clipPath id="clip0_3523_9479">
      <rect width="32" height="32" fill="white" transform="translate(0 0.5)"/>
    </clipPath>
  </defs>
</svg>