<svg width="138" height="48" viewBox="0 0 138 48" fill="none" xmlns="http://www.w3.org/2000/svg">
<path d="M131.737 7.74773C131.185 3.7959 127.804 0.855469 123.814 0.855469H8.5039C4.08563 0.855469 0.503906 4.43719 0.503906 8.85547V39.2163C0.503906 43.6346 4.08563 47.2163 8.50391 47.2163H128.059C132.918 47.2163 136.655 42.9205 135.982 38.1086L131.737 7.74773Z" fill="#6E5FED"/>
<path d="M45.5572 31.0363V14.7363H51.8772C57.2772 14.7363 60.6172 18.0763 60.6172 22.8963C60.6172 27.7163 57.2772 31.0363 51.8772 31.0363H45.5572ZM49.1972 27.8163H51.9372C55.0572 27.8163 56.9772 26.0363 56.9772 22.8963C56.9772 19.7563 55.0572 17.9563 51.9372 17.9563H49.1972V27.8163ZM68.2033 31.3163C64.8433 31.3163 62.5033 28.7363 62.5033 25.1763C62.5033 21.6163 64.8433 19.0363 68.2033 19.0363C69.7433 19.0363 70.8633 19.5763 71.5633 20.5163V19.3163H75.1233V31.0363H71.5633V29.8363C70.8633 30.7763 69.7433 31.3163 68.2033 31.3163ZM68.7633 28.2763C70.5033 28.2763 71.6233 26.9763 71.6233 25.1763C71.6233 23.3763 70.5033 22.0763 68.7633 22.0763C67.0633 22.0763 65.9833 23.3763 65.9833 25.1763C65.9833 26.9763 67.0633 28.2763 68.7633 28.2763ZM78.2103 31.0363V19.3163H81.7703V20.5163C82.4703 19.5763 83.5503 19.0363 85.0503 19.0363C87.7703 19.0363 89.6303 21.0163 89.6303 24.2563V31.0363H86.0703V24.8563C86.0703 23.0763 85.3503 22.0963 84.0103 22.0963C82.6103 22.0963 81.7703 23.1963 81.7703 25.0163V31.0363H78.2103ZM96.8384 31.3163C94.1184 31.3163 92.2584 29.3363 92.2584 26.0963V19.3163H95.8184V25.4963C95.8184 27.2763 96.5384 28.2563 97.8784 28.2563C99.2784 28.2563 100.118 27.1563 100.118 25.3363V19.3163H103.678V31.0363H100.118V29.8363C99.4184 30.7763 98.3384 31.3163 96.8384 31.3163ZM106.764 31.0363V14.2363H110.324V20.5163C111.024 19.5763 112.104 19.0363 113.604 19.0363C116.324 19.0363 118.184 21.0163 118.184 24.2563V31.0363H114.624V24.8563C114.624 23.0763 113.904 22.0963 112.564 22.0963C111.164 22.0963 110.324 23.1963 110.324 25.0163V31.0363H106.764Z" fill="white"/>
<g clip-path="url(#clip0_1878_6041)">
<path d="M21.3853 8.23633V9.37633H19.1807V10.5238H21.3853V11.6638H22.484V10.5238H24.6886V11.6638H25.7873V10.5238H27.992V11.6638H29.0979V10.5238H30.1966V12.8113H31.2953V11.6638H32.4012V31.0963H20.2866V32.2363H33.5V31.0963H34.5987V11.6638H33.5V10.5238H32.4012V9.37633H29.0979V8.23633H27.992V9.37633H25.7873V8.23633H24.6886V9.37633H22.484V8.23633H21.3853Z" fill="#DFD9FF"/>
<path d="M29.0986 12.8115H30.1973V15.0915H29.0986V12.8115Z" fill="#DFD9FF"/>
<path d="M27.9922 17.3793H31.2955V16.2393H29.0981V15.0918H27.9922V17.3793Z" fill="#DFD9FF"/>
<path d="M26.893 19.6664H25.7871V21.9539H26.893V20.8064H31.2951V19.6664H27.9917V17.3789H26.893V19.6664Z" fill="#DFD9FF"/>
<path d="M24.6885 24.2341H31.2952V23.0941H25.7872V21.9541H24.6885V24.2341Z" fill="#DFD9FF"/>
<path d="M23.5898 17.3789H24.6885V18.5264H23.5898V17.3789Z" fill="#DFD9FF"/>
<path d="M23.5898 15.0918H24.6885V16.2393H23.5898V15.0918Z" fill="#DFD9FF"/>
<path d="M21.3857 26.5215H31.2958V27.669H21.3857V26.5215Z" fill="#DFD9FF"/>
<path d="M20.2871 18.5264H23.5904V19.6664H20.2871V18.5264Z" fill="#DFD9FF"/>
<path d="M20.2871 15.0918H21.3858V16.2393H20.2871V15.0918Z" fill="#DFD9FF"/>
<path d="M20.2868 25.3809H24.6888V24.2334H13.6729V25.3809H19.1808V31.0959H20.2868V25.3809Z" fill="#DFD9FF"/>
<path d="M19.1807 17.3789H20.2866V18.5264H19.1807V17.3789Z" fill="#DFD9FF"/>
<path d="M18.082 10.5234H19.1807V12.8109H18.082V10.5234Z" fill="#DFD9FF"/>
<path d="M16.9766 12.8115H18.0825V15.0915H16.9766V12.8115Z" fill="#DFD9FF"/>
<path d="M15.8779 15.0918H16.9766V17.3793H15.8779V15.0918Z" fill="#DFD9FF"/>
<path d="M14.7793 17.3789H15.878V19.6664H14.7793V17.3789Z" fill="#DFD9FF"/>
<path d="M13.6729 19.666H14.7788V21.9535H13.6729V19.666Z" fill="#DFD9FF"/>
<path d="M12.5742 21.9541H13.6729V24.2341H12.5742V21.9541Z" fill="#DFD9FF"/>
</g>
<defs>
<clipPath id="clip0_1878_6041">
<rect width="24" height="24" fill="white" transform="translate(12 8.23633)"/>
</clipPath>
</defs>
</svg>
