<svg width="192" height="41" viewBox="0 0 192 41" fill="none" xmlns="http://www.w3.org/2000/svg">
<g clip-path="url(#clip0_2095_5893)">
<path d="M13.0128 0.935547V2.45555H10.0732V3.98555H13.0128V5.50555H14.4777V3.98555H17.4172V5.50555H18.8821V3.98555H21.8217V5.50555H23.2962V3.98555H24.7612V7.03555H26.2261V5.50555H27.7007V31.4155H11.5478V32.9355H29.1656V31.4155H30.6306V5.50555H29.1656V3.98555H27.7007V2.45555H23.2962V0.935547H21.8217V2.45555H18.8821V0.935547H17.4172V2.45555H14.4777V0.935547H13.0128Z" fill="#6E5FED"/>
<path d="M23.2969 7.03516H24.7618V10.0752H23.2969V7.03516Z" fill="#6E5FED"/>
<path d="M21.8223 13.1252H26.2267V11.6052H23.2968V10.0752H21.8223V13.1252Z" fill="#6E5FED"/>
<path d="M20.3574 16.176H18.8828V19.226H20.3574V17.696H26.2268V16.176H21.8223V13.126H20.3574V16.176Z" fill="#6E5FED"/>
<path d="M17.418 22.2656H26.2269V20.7456H18.8829V19.2256H17.418V22.2656Z" fill="#6E5FED"/>
<path d="M15.9521 13.125H17.4171V14.655H15.9521V13.125Z" fill="#6E5FED"/>
<path d="M15.9521 10.0752H17.4171V11.6052H15.9521V10.0752Z" fill="#6E5FED"/>
<path d="M13.0127 25.3154H26.2261V26.8454H13.0127V25.3154Z" fill="#6E5FED"/>
<path d="M11.5479 14.6553H15.9523V16.1753H11.5479V14.6553Z" fill="#6E5FED"/>
<path d="M11.5479 10.0752H13.0128V11.6052H11.5479V10.0752Z" fill="#6E5FED"/>
<path d="M11.548 23.7956H17.4174V22.2656H2.72949V23.7956H10.0735V31.4156H11.548V23.7956Z" fill="#6E5FED"/>
<path d="M10.0732 13.126H11.5478V14.656H10.0732V13.126Z" fill="#6E5FED"/>
<path d="M8.6084 3.98535H10.0733V7.03535H8.6084V3.98535Z" fill="#6E5FED"/>
<path d="M7.13379 7.03516H8.60837V10.0752H7.13379V7.03516Z" fill="#6E5FED"/>
<path d="M5.66895 10.0752H7.13388V13.1252H5.66895V10.0752Z" fill="#6E5FED"/>
<path d="M4.2041 13.126H5.66904V16.176H4.2041V13.126Z" fill="#6E5FED"/>
<path d="M2.72949 16.1758H4.20407V19.2258H2.72949V16.1758Z" fill="#6E5FED"/>
<path d="M1.26465 19.2256H2.72959V22.2656H1.26465V19.2256Z" fill="#6E5FED"/>
</g>
<path d="M43.38 36.5355V3.93555H56.02C66.82 3.93555 73.5 10.6155 73.5 20.2555C73.5 29.8955 66.82 36.5355 56.02 36.5355H43.38ZM50.66 30.0955H56.14C62.38 30.0955 66.22 26.5355 66.22 20.2555C66.22 13.9755 62.38 10.3755 56.14 10.3755H50.66V30.0955ZM88.6722 37.0955C81.9522 37.0955 77.2722 31.9355 77.2722 24.8155C77.2722 17.6955 81.9522 12.5355 88.6722 12.5355C91.7522 12.5355 93.9922 13.6155 95.3922 15.4955V13.0955H102.512V36.5355H95.3922V34.1355C93.9922 36.0155 91.7522 37.0955 88.6722 37.0955ZM89.7922 31.0155C93.2722 31.0155 95.5122 28.4155 95.5122 24.8155C95.5122 21.2155 93.2722 18.6155 89.7922 18.6155C86.3922 18.6155 84.2322 21.2155 84.2322 24.8155C84.2322 28.4155 86.3922 31.0155 89.7922 31.0155ZM108.686 36.5355V13.0955H115.806V15.4955C117.206 13.6155 119.366 12.5355 122.366 12.5355C127.806 12.5355 131.526 16.4955 131.526 22.9755V36.5355H124.406V24.1755C124.406 20.6155 122.966 18.6555 120.286 18.6555C117.486 18.6555 115.806 20.8555 115.806 24.4955V36.5355H108.686ZM145.943 37.0955C140.503 37.0955 136.783 33.1355 136.783 26.6555V13.0955H143.903V25.4555C143.903 29.0155 145.343 30.9755 148.023 30.9755C150.823 30.9755 152.503 28.7755 152.503 25.1355V13.0955H159.623V36.5355H152.503V34.1355C151.103 36.0155 148.943 37.0955 145.943 37.0955ZM165.794 36.5355V2.93554H172.914V15.4955C174.314 13.6155 176.474 12.5355 179.474 12.5355C184.914 12.5355 188.634 16.4955 188.634 22.9755V36.5355H181.514V24.1755C181.514 20.6155 180.074 18.6555 177.394 18.6555C174.594 18.6555 172.914 20.8555 172.914 24.4955V36.5355H165.794Z" fill="#6E5FED"/>
<defs>
<clipPath id="clip0_2095_5893">
<rect width="32" height="32" fill="white" transform="translate(0.5 0.935547)"/>
</clipPath>
</defs>
</svg>
