<svg width="138" height="47" viewBox="0 0 138 47" fill="none" xmlns="http://www.w3.org/2000/svg">
<path d="M131.737 7.42742C131.185 3.47559 127.804 0.535156 123.814 0.535156H8.5039C4.08563 0.535156 0.503906 4.11688 0.503906 8.53516V38.896C0.503906 43.3143 4.08563 46.896 8.50391 46.896H128.059C132.918 46.896 136.655 42.6002 135.982 37.7883L131.737 7.42742Z" fill="#6E5FED"/>
<path d="M54.2172 16.736H57.0172V25.136H54.2172V16.736ZM54.2172 16.736H49.1972V25.116H54.2172V27.916H44.9972V25.116H46.3972V16.736H44.9972V13.936H54.2172V16.736ZM59.2825 27.916V16.736H62.0825V20.376H65.1425V22.896H62.0825V27.916H59.2825ZM68.2425 16.716H71.0425V27.916H68.2425V20.356H65.1625V18.116H68.2425V16.716ZM62.0825 13.916H68.2425V16.716H62.0825V13.916ZM78.9617 18.976H81.4817V22.896H78.9617V18.976H76.4617V27.916H73.6617V13.936H76.4617V16.736H78.9617V18.976ZM84.0017 13.936H86.8017V27.916H84.0017V25.116H81.4817V22.896H84.0017V13.936ZM92.2188 25.116H98.9188V27.916H92.2188V25.116ZM89.4188 13.936H92.2188V25.116H89.4188V13.936ZM98.9188 13.936H101.719V25.116H98.9188V13.936ZM112.605 13.936H115.405V27.916H112.605V21.776H107.025V18.976H112.605V13.936ZM104.225 13.936H107.025V18.976H104.225V13.936ZM104.225 27.916V21.776H107.025V27.916H104.225Z" fill="white"/>
<g clip-path="url(#clip0_1878_6041)">
<path d="M21.3853 7.91602V9.05602H19.1807V10.2035H21.3853V11.3435H22.484V10.2035H24.6886V11.3435H25.7873V10.2035H27.992V11.3435H29.0979V10.2035H30.1966V12.491H31.2953V11.3435H32.4012V30.776H20.2866V31.916H33.5V30.776H34.5987V11.3435H33.5V10.2035H32.4012V9.05602H29.0979V7.91602H27.992V9.05602H25.7873V7.91602H24.6886V9.05602H22.484V7.91602H21.3853Z" fill="#DFD9FF"/>
<path d="M29.0986 12.4912H30.1973V14.7712H29.0986V12.4912Z" fill="#DFD9FF"/>
<path d="M27.9922 17.059H31.2955V15.919H29.0981V14.7715H27.9922V17.059Z" fill="#DFD9FF"/>
<path d="M26.893 19.3461H25.7871V21.6336H26.893V20.4861H31.2951V19.3461H27.9917V17.0586H26.893V19.3461Z" fill="#DFD9FF"/>
<path d="M24.6885 23.9138H31.2952V22.7738H25.7872V21.6338H24.6885V23.9138Z" fill="#DFD9FF"/>
<path d="M23.5898 17.0586H24.6885V18.2061H23.5898V17.0586Z" fill="#DFD9FF"/>
<path d="M23.5898 14.7715H24.6885V15.919H23.5898V14.7715Z" fill="#DFD9FF"/>
<path d="M21.3857 26.2012H31.2958V27.3487H21.3857V26.2012Z" fill="#DFD9FF"/>
<path d="M20.2871 18.2061H23.5904V19.3461H20.2871V18.2061Z" fill="#DFD9FF"/>
<path d="M20.2871 14.7715H21.3858V15.919H20.2871V14.7715Z" fill="#DFD9FF"/>
<path d="M20.2868 25.0606H24.6888V23.9131H13.6729V25.0606H19.1808V30.7756H20.2868V25.0606Z" fill="#DFD9FF"/>
<path d="M19.1807 17.0586H20.2866V18.2061H19.1807V17.0586Z" fill="#DFD9FF"/>
<path d="M18.082 10.2031H19.1807V12.4906H18.082V10.2031Z" fill="#DFD9FF"/>
<path d="M16.9766 12.4912H18.0825V14.7712H16.9766V12.4912Z" fill="#DFD9FF"/>
<path d="M15.8779 14.7715H16.9766V17.059H15.8779V14.7715Z" fill="#DFD9FF"/>
<path d="M14.7793 17.0586H15.878V19.3461H14.7793V17.0586Z" fill="#DFD9FF"/>
<path d="M13.6729 19.3457H14.7788V21.6332H13.6729V19.3457Z" fill="#DFD9FF"/>
<path d="M12.5742 21.6338H13.6729V23.9138H12.5742V21.6338Z" fill="#DFD9FF"/>
</g>
<defs>
<clipPath id="clip0_1878_6041">
<rect width="24" height="24" fill="white" transform="translate(12 7.91602)"/>
</clipPath>
</defs>
</svg>
