<svg width="198" height="251" viewBox="0 0 198 251" fill="none" xmlns="http://www.w3.org/2000/svg">
<path d="M129.433 11.9595C124.575 7.83762 119.706 3.97133 113.641 2.72365C106.068 1.1656 99.3112 4.77748 92.7929 10.6593C86.2747 16.541 86.3611 36.0703 91.3166 45.6683C96.2721 55.2662 110.532 52.4438 114.435 36.1798C116.203 28.8106 122.256 25.9758 122.256 25.9758C122.256 25.9758 138.749 19.8655 129.433 11.9595Z" fill="#282828" stroke="black" stroke-width="3"/>
<path d="M9.42244 61.0413C9.31774 54.6717 9.41839 48.4549 12.3014 42.9755C15.9016 36.1331 22.9803 33.2014 31.6621 31.8944C40.344 30.5874 55.3851 43.0439 59.6604 52.9635C63.9356 62.8832 52.7073 72.1152 37.6593 64.814C30.841 61.5059 24.8099 64.3859 24.8099 64.3859C24.8099 64.3859 9.62326 73.2584 9.42244 61.0413Z" fill="#282828" stroke="black" stroke-width="3"/>
<path d="M67.1972 73.7896C72.8897 63.9161 63.5453 40.9122 60.7619 37.0801L47.693 41.4804L35.3926 60.4933L40.0747 89.7721C41.2373 93.5161 45.1458 100.065 51.4786 96.3096C59.3946 91.6153 60.0816 86.1314 67.1972 73.7896Z" fill="#282828"/>
<path d="M86.3449 73.0959C78.65 64.6238 78.4435 38.2608 80.4016 33.9324L95.0263 33.9324L109.605 42.3004L114.84 54.7335L116.536 83.0785C116.165 86.9831 113.659 94.2036 106.604 91.8496C97.7865 88.907 95.9635 83.6859 86.3449 73.0959Z" fill="#282828"/>
<mask id="path-5-inside-1_847_284" fill="white">
<path fill-rule="evenodd" clip-rule="evenodd" d="M116.492 62.4467C116.514 62.652 116.534 62.8572 116.553 63.0621L117.246 69.6935C117.27 69.89 117.292 70.0869 117.313 70.2843C119.615 92.2813 103.368 112.01 81.0228 114.349C59.4544 116.607 40.0886 101.838 36.6975 81.0267L36.6804 81.029L36.6416 80.6737C36.5441 80.0396 36.4614 79.4001 36.3939 78.7553C36.3388 78.2292 36.2944 77.7044 36.2604 77.1811L35.6728 71.798C35.6374 71.5055 35.6042 71.212 35.5734 70.9177C35.5596 70.7852 35.5462 70.6531 35.5334 70.5214L35.5154 70.3564L35.5176 70.3562C33.1309 45.0285 50.2892 34.9812 72.471 32.659C94.8161 30.3199 113.797 36.7058 116.492 62.4467Z"/>
</mask>
<path d="M116.553 63.0621L113.566 63.3409L113.568 63.3575L113.569 63.374L116.553 63.0621ZM117.246 69.6935L114.263 70.0055L114.265 70.0277L114.268 70.0499L117.246 69.6935ZM36.6975 81.0267L39.6584 80.5442L39.1887 77.6614L36.2943 78.0539L36.6975 81.0267ZM36.6804 81.029L33.6981 81.3546L34.0322 84.4156L37.0835 84.0018L36.6804 81.029ZM36.6416 80.6737L39.6239 80.3482L39.6167 80.2828L39.6067 80.2178L36.6416 80.6737ZM36.2604 77.1811L39.254 76.9865L39.2498 76.9209L39.2426 76.8556L36.2604 77.1811ZM35.6728 71.798L38.655 71.4725L38.6531 71.4551L38.651 71.4377L35.6728 71.798ZM35.5334 70.5214L38.5193 70.2308L38.5176 70.2133L38.5157 70.1958L35.5334 70.5214ZM35.5154 70.3564L35.2394 67.3692L32.2021 67.6498L32.5331 70.682L35.5154 70.3564ZM35.5176 70.3562L35.7936 73.3435L38.7863 73.0669L38.5044 70.0748L35.5176 70.3562ZM119.54 62.7833C119.52 62.5672 119.498 62.3509 119.476 62.1344L113.508 62.7591C113.529 62.9532 113.548 63.1472 113.566 63.3409L119.54 62.7833ZM120.23 69.3816L119.537 62.7502L113.569 63.374L114.263 70.0055L120.23 69.3816ZM114.268 70.0499C114.289 70.2317 114.31 70.414 114.329 70.5967L120.296 69.972C120.274 69.7598 120.25 69.5482 120.225 69.3371L114.268 70.0499ZM114.329 70.5967C116.455 90.9019 101.452 109.194 80.7104 111.365L81.3351 117.333C105.284 114.826 122.776 93.6608 120.296 69.972L114.329 70.5967ZM80.7104 111.365C60.6921 113.461 42.7888 99.755 39.6584 80.5442L33.7365 81.5092C37.3885 103.921 58.2167 119.753 81.3351 117.333L80.7104 111.365ZM37.0835 84.0018L37.1006 83.9995L36.2943 78.0539L36.2772 78.0562L37.0835 84.0018ZM33.6593 80.9992L33.6981 81.3546L39.6627 80.7035L39.6239 80.3482L33.6593 80.9992ZM39.6067 80.2178C39.5166 79.6314 39.4401 79.0397 39.3776 78.4429L33.4102 79.0676C33.4827 79.7604 33.5716 80.4479 33.6764 81.1296L39.6067 80.2178ZM39.3776 78.4429C39.3266 77.956 39.2855 77.4705 39.254 76.9865L33.2667 77.3757C33.3032 77.9383 33.351 78.5024 33.4102 79.0676L39.3776 78.4429ZM32.6905 72.1236L33.2781 77.5066L39.2426 76.8556L38.655 71.4725L32.6905 72.1236ZM32.5897 71.23C32.6222 71.5404 32.6571 71.8498 32.6945 72.1583L38.651 71.4377C38.6176 71.1611 38.5863 70.8837 38.5571 70.6053L32.5897 71.23ZM32.5475 70.812C32.561 70.951 32.5751 71.0903 32.5897 71.23L38.5571 70.6053C38.544 70.48 38.5314 70.3552 38.5193 70.2308L32.5475 70.812ZM32.5331 70.682L32.5511 70.8469L38.5157 70.1958L38.4977 70.0309L32.5331 70.682ZM35.2415 67.3689L35.2394 67.3692L35.7914 73.3437L35.7936 73.3435L35.2415 67.3689ZM72.1587 29.6753C60.7853 30.866 50.2305 34.0715 42.7963 40.631C35.2013 47.3323 31.2624 57.1768 32.5308 70.6377L38.5044 70.0748C37.3861 58.208 40.833 50.3649 46.766 45.1301C52.8596 39.7534 61.9749 36.7742 72.7834 35.6427L72.1587 29.6753ZM119.476 62.1344C118.046 48.4762 112.193 39.5019 103.344 34.4212C94.6836 29.4486 83.6145 28.4761 72.1587 29.6753L72.7834 35.6427C83.6727 34.5028 93.2667 35.5537 100.357 39.6245C107.258 43.5872 112.244 50.6763 113.508 62.7591L119.476 62.1344Z" fill="black" mask="url(#path-5-inside-1_847_284)"/>
<path d="M81.3706 74.5175C81.5239 75.9818 79.7895 78.736 77.3213 78.9944C74.8532 79.2528 72.6199 77.2417 72.4327 75.4532C72.2788 73.9828 72.0342 71.6465 76.5031 71.1787C80.9721 70.7108 81.2173 73.0532 81.3706 74.5175Z" fill="black"/>
<path d="M84.582 82.4062C80.8283 86.7589 75.0646 87.4879 70.9249 83.8359" stroke="black" stroke-width="2" stroke-linecap="round"/>
<path d="M66.4569 67.87C63.2884 65.4585 59.2774 65.7914 56.9957 68.8604" stroke="white" stroke-width="2" stroke-linecap="round"/>
<path d="M95.1083 64.872C91.9398 62.4605 87.9288 62.7934 85.6471 65.8624" stroke="white" stroke-width="2" stroke-linecap="round"/>
<path d="M118.709 112.168C123.513 108.449 130.422 109.327 134.141 114.131L146.915 130.626C152.325 137.613 151.047 147.663 144.061 153.073L61.1802 217.253C56.3769 220.973 49.4677 220.094 45.7481 215.291L29.9131 194.842C26.1936 190.039 27.0721 183.13 31.8755 179.41L118.709 112.168Z" fill="#694AC2"/>
<line x1="136.082" y1="116.637" x2="31.8535" y2="197.348" stroke="black" stroke-width="3"/>
<line x1="149.873" y1="134.446" x2="45.6447" y2="215.157" stroke="black" stroke-width="3"/>
<path d="M180.477 94.6046L154.115 144.584L125.491 107.62L180.477 94.6046Z" fill="white"/>
<path d="M174.082 97.3932C175.679 97.0996 176.942 98.7303 176.258 100.203L168.474 116.962C167.843 118.321 165.996 118.529 165.079 117.344L154.688 103.926C153.771 102.742 154.434 101.006 155.908 100.735L174.082 97.3932Z" fill="#212121"/>
<path d="M176.615 101.315L178.335 102.335L178.335 102.335L176.615 101.315ZM173.199 96.9047L173.755 98.8257L173.199 96.9047ZM153.887 139.672L152.167 138.652L152.167 138.652L153.887 139.672ZM152.13 141.028L151.586 139.104C150.789 139.329 150.213 140.023 150.139 140.848L152.13 141.028ZM146.375 151.538L145.151 149.956L146.375 151.538ZM65.2578 214.352L66.4823 215.934L65.2578 214.352ZM129.189 109.97L128.788 111.929C129.414 112.057 130.063 111.878 130.536 111.448L129.189 109.97ZM130.375 109.309L129.819 107.388L129.819 107.388L130.375 109.309ZM178.335 102.335C180.645 98.4371 176.994 93.7231 172.643 94.9836L173.755 98.8257C174.626 98.5736 175.356 99.5164 174.894 100.296L178.335 102.335ZM155.608 140.691L178.335 102.335L174.894 100.296L152.167 138.652L155.608 140.691ZM152.675 142.953C153.847 142.621 154.918 141.855 155.608 140.691L152.167 138.652C152.024 138.893 151.818 139.038 151.586 139.104L152.675 142.953ZM147.6 153.119C151.487 150.109 153.711 145.743 154.122 141.209L150.139 140.848C149.824 144.322 148.123 147.654 145.151 149.956L147.6 153.119ZM66.4823 215.934L147.6 153.119L145.151 149.956L64.0333 212.771L66.4823 215.934ZM41.2298 212.723C47.3164 220.583 58.6223 222.02 66.4823 215.934L64.0333 212.771C57.92 217.505 49.1264 216.387 44.3925 210.274L41.2298 212.723ZM31.4839 200.137L41.2298 212.723L44.3925 210.274L34.6466 197.688L31.4839 200.137ZM34.6951 174.885C26.8351 180.971 25.3974 192.277 31.4839 200.137L34.6466 197.688C29.9126 191.575 31.0308 182.781 37.1441 178.047L34.6951 174.885ZM117.394 110.845L34.6951 174.885L37.1441 178.047L119.843 114.008L117.394 110.845ZM129.59 108.01C125.46 107.166 120.992 108.059 117.394 110.845L119.843 114.008C122.481 111.965 125.752 111.308 128.788 111.929L129.59 108.01ZM129.819 107.388C129.058 107.608 128.389 107.992 127.842 108.491L130.536 111.448C130.638 111.355 130.767 111.278 130.932 111.23L129.819 107.388ZM172.643 94.9836L129.819 107.388L130.932 111.23L173.755 98.8257L172.643 94.9836Z" fill="black"/>
<path d="M101.978 188.09C103.082 188.842 102.488 192.787 102.488 194.023C102.488 197.784 102.808 201.731 102.261 205.456C101.843 208.308 100.604 212.86 101.524 215.869C101.915 217.147 106.65 216.42 107.817 216.456C112.142 216.591 114.229 218.956 118.312 220.38C122.131 221.712 124.782 223.23 127.999 227.889C126.153 231.126 126.532 233.718 126.532 237.036C126.532 244.958 119.108 245.111 113.826 245.997C111.401 246.403 109.155 247.927 106.57 248.129C103.874 248.339 101.109 248.16 98.4063 248.16C92.2459 248.16 86.0854 248.16 79.925 248.16C77.5618 248.16 73.9158 249.236 73.9158 245.688C73.9158 241.465 73.9158 237.242 73.9158 233.019C73.9158 225.644 73.9158 218.269 73.9158 210.894" stroke="#C7B3FF" stroke-width="3" stroke-linecap="round"/>
<path d="M79.2207 249.384C78.8928 246.527 52.1615 248.648 47.0481 247.592C43.658 246.892 40.2583 245.473 36.8629 244.626C32.6022 243.562 28.3 242.022 24.1528 240.516C22.0135 239.739 23.6498 239.484 20.0316 237.581C18.8534 236.195 18.3415 226.94 18.4075 225.215C18.6518 218.829 20.5259 218.356 25.5713 215.425C28.8473 213.522 33.1791 211.3 36.9481 211.007C39.8326 210.782 40.6815 207.988 39.6149 205.166C38.627 202.553 39.164 199.773 37.9694 197.225C37.2035 195.592 37.3452 193.876 37.3452 192.096" stroke="#C7B3FF" stroke-width="3" stroke-linecap="round"/>
<path d="M54.1776 106.97C50.6999 106.97 45.6817 106.315 42.7647 108.549C39.0644 111.384 34.7993 110.161 31.3676 113.344C28.6812 115.836 26.8976 118.826 24.4547 121.687C21.1966 125.504 18.5337 128.06 17.2674 133.429C16.3795 137.195 16.2799 141.659 16.2799 145.542C16.2799 147.505 16.1682 149.525 16.3896 151.475C16.6272 153.567 17.7985 154.461 18.6665 156.172C22.0134 162.769 26.4404 167.369 32.3277 171.158C37.8195 174.693 44.2308 177.762 50.3507 179.532C54.6006 180.761 60.755 184.3 65.1641 182.313" stroke="#C7B3FF" stroke-width="3" stroke-linecap="round"/>
<path d="M68.5012 145.604C69.0523 142.849 74.2049 140.502 76.7206 140.599C79.8551 140.719 78.9919 150.796 79.5016 152.835C79.9165 154.495 85.8398 151.812 87.5356 151.29C90.7902 150.289 97.4999 153.359 99.3085 156.172C101.492 159.569 98.8768 166.417 98.0107 169.737C97.4976 171.704 96.2266 171.917 94.7662 173.105C93.0399 174.511 92.6363 177.228 90.9964 178.42C87.6582 180.848 83.9094 183.8 79.9033 185.033C75.6492 186.342 70.2879 184.645 66.2764 187.319" stroke="#C7B3FF" stroke-width="3" stroke-linecap="round"/>
<path d="M107.991 103.889C111.154 101.359 113.199 105.148 115.346 106.546C117.233 107.776 118.652 109.637 119.672 111.676" stroke="#C7B3FF" stroke-width="3" stroke-linecap="round"/>
<path d="M140.251 161.734C138.226 164.013 135.522 164.582 133.144 166.431C131.98 167.337 129.275 169.013 128.447 170.077C126.31 172.825 121.842 173.415 118.559 173.415" stroke="#C7B3FF" stroke-width="3" stroke-linecap="round"/>
<path d="M140.807 155.616C140.807 150.024 139.825 145.854 134.565 142.823C129.877 140.121 127.067 142.586 124.399 146.438C122.623 149.005 121.819 146.88 119.672 146.284C116.791 145.484 112.64 146.018 109.691 146.191C106.655 146.37 104.434 147.808 103.542 150.733C102.024 155.708 97.8104 159.223 96.0022 163.959C93.7597 169.832 97.2856 173.476 102.306 176.504C107 179.335 113.626 183.307 119.146 180.892C124.941 178.357 131.473 174.719 133.577 168.408" stroke="#C7B3FF" stroke-width="3" stroke-linecap="round"/>
<path d="M96.9072 107.365C100.26 107.365 104.501 107.428 107.572 108.845C109.485 109.728 110.892 111.381 113.151 111.464C114.811 111.526 116.127 111.055 116.719 112.831" stroke="#C7B3FF" stroke-width="3" stroke-linecap="round"/>
<circle cx="56.1974" cy="68.0692" r="15.1269" transform="rotate(-5.97624 56.1974 68.0692)" stroke="#694AC2" stroke-width="2"/>
<circle cx="95.1852" cy="63.9872" r="15.1269" transform="rotate(-5.97624 95.1852 63.9872)" stroke="#694AC2" stroke-width="2"/>
<path d="M71.8633 66.9238L79.7424 66.1475" stroke="#7B60C9" stroke-width="3" stroke-linecap="round"/>
</svg>
