<svg width="60" height="61" viewBox="0 0 60 61" fill="none" xmlns="http://www.w3.org/2000/svg">
<g clip-path="url(#clip0_1289_631)">
<path d="M53.9978 11.5928V0.155273H25.899V3.00527H14.6522V5.87402H6.22622V25.8803H3.42372V31.5803H0.602783V60.1553H59.6028V11.5928H53.9978ZM14.6522 57.3053H3.42372V40.149H14.6522V57.3053ZM14.6522 37.299H9.04716V8.72402H14.6522V37.299ZM17.4731 5.87402H25.899V8.72402H20.2756V37.299H17.4731V5.87402ZM25.899 11.5928V37.299H23.0965V11.5928H25.899ZM28.7015 57.3053H17.4731V40.149H28.7015V57.3053ZM56.8003 57.3053H31.5225V37.299H28.7015V3.00527H51.1768V11.5928H42.7509V14.4428H56.8003V57.3053Z" fill="#734AE8"/>
<path d="M51.1768 40.1489H48.3743V43.0177H51.1768V40.1489Z" fill="#734AE8"/>
<path d="M51.1768 34.4492H48.3743V37.2992H51.1768V34.4492Z" fill="#734AE8"/>
<path d="M48.3744 43.0176H42.751V45.8676H48.3744V43.0176Z" fill="#734AE8"/>
<path d="M42.751 40.1489H39.9485V43.0177H42.751V40.1489Z" fill="#734AE8"/>
<path d="M42.751 34.4492H39.9485V37.2992H42.751V34.4492Z" fill="#734AE8"/>
<path d="M42.751 14.4429H39.9485V20.1616H42.751V14.4429Z" fill="#734AE8"/>
<path d="M39.9484 20.1616H37.1274V25.8804H39.9484V20.1616Z" fill="#734AE8"/>
<path d="M37.1274 25.8804H34.325V31.5804H37.1274V25.8804Z" fill="#734AE8"/>
<path d="M37.1274 5.87402H34.325V8.72402H37.1274V5.87402Z" fill="#734AE8"/>
<path d="M34.325 31.5801H31.5225V37.2988H34.325V31.5801Z" fill="#734AE8"/>
<path d="M25.8991 45.8677H20.2756V51.5864H25.8991V45.8677Z" fill="#734AE8"/>
<path d="M11.8498 45.8677H6.22632V51.5864H11.8498V45.8677Z" fill="#734AE8"/>
</g>
<defs>
<clipPath id="clip0_1289_631">
<rect width="59" height="60" fill="white" transform="translate(0.602783 0.155273)"/>
</clipPath>
</defs>
</svg>
