<svg width="192" height="48" viewBox="0 0 192 48" fill="none" xmlns="http://www.w3.org/2000/svg">
<g clip-path="url(#clip0_2095_5893)">
<path d="M12.5128 0.935547V2.45555H9.57324V3.98555H12.5128V5.50555H13.9777V3.98555H16.9172V5.50555H18.3821V3.98555H21.3217V5.50555H22.7962V3.98555H24.2612V7.03555H25.7261V5.50555H27.2007V31.4155H11.0478V32.9355H28.6656V31.4155H30.1306V5.50555H28.6656V3.98555H27.2007V2.45555H22.7962V0.935547H21.3217V2.45555H18.3821V0.935547H16.9172V2.45555H13.9777V0.935547H12.5128Z" fill="#6E5FED"/>
<path d="M22.7969 7.03516H24.2618V10.0752H22.7969V7.03516Z" fill="#6E5FED"/>
<path d="M21.3223 13.1252H25.7267V11.6052H22.7968V10.0752H21.3223V13.1252Z" fill="#6E5FED"/>
<path d="M19.8574 16.176H18.3828V19.226H19.8574V17.696H25.7268V16.176H21.3223V13.126H19.8574V16.176Z" fill="#6E5FED"/>
<path d="M16.918 22.2656H25.7269V20.7456H18.3829V19.2256H16.918V22.2656Z" fill="#6E5FED"/>
<path d="M15.4521 13.125H16.9171V14.655H15.4521V13.125Z" fill="#6E5FED"/>
<path d="M15.4521 10.0752H16.9171V11.6052H15.4521V10.0752Z" fill="#6E5FED"/>
<path d="M12.5127 25.3154H25.7261V26.8454H12.5127V25.3154Z" fill="#6E5FED"/>
<path d="M11.0479 14.6553H15.4523V16.1753H11.0479V14.6553Z" fill="#6E5FED"/>
<path d="M11.0479 10.0752H12.5128V11.6052H11.0479V10.0752Z" fill="#6E5FED"/>
<path d="M11.048 23.7956H16.9174V22.2656H2.22949V23.7956H9.57346V31.4156H11.048V23.7956Z" fill="#6E5FED"/>
<path d="M9.57324 13.126H11.0478V14.656H9.57324V13.126Z" fill="#6E5FED"/>
<path d="M8.1084 3.98535H9.57334V7.03535H8.1084V3.98535Z" fill="#6E5FED"/>
<path d="M6.63379 7.03516H8.10837V10.0752H6.63379V7.03516Z" fill="#6E5FED"/>
<path d="M5.16895 10.0752H6.63388V13.1252H5.16895V10.0752Z" fill="#6E5FED"/>
<path d="M3.7041 13.126H5.16904V16.176H3.7041V13.126Z" fill="#6E5FED"/>
<path d="M2.22949 16.1758H3.70407V19.2258H2.22949V16.1758Z" fill="#6E5FED"/>
<path d="M0.764648 19.2256H2.22959V22.2656H0.764648V19.2256Z" fill="#6E5FED"/>
</g>
<path d="M60.2 8.57555H65.8V25.3755H60.2V8.57555ZM60.2 8.57555H50.16V25.3355H60.2V30.9355H41.76V25.3355H44.56V8.57555H41.76V2.97554H60.2V8.57555ZM71.9306 30.9355V8.57555H77.5306V15.8555H83.6506V20.8955H77.5306V30.9355H71.9306ZM89.8506 8.53555H95.4506V30.9355H89.8506V15.8155H83.6906V11.3355H89.8506V8.53555ZM77.5306 2.93554H89.8506V8.53555H77.5306V2.93554ZM112.889 13.0555H117.929V20.8955H112.889V13.0555H107.889V30.9355H102.289V2.97554H107.889V8.57555H112.889V13.0555ZM122.969 2.97554H128.569V30.9355H122.969V25.3355H117.929V20.8955H122.969V2.97554ZM141.003 25.3355H154.403V30.9355H141.003V25.3355ZM135.403 2.97554H141.003V25.3355H135.403V2.97554ZM154.403 2.97554H160.003V25.3355H154.403V2.97554ZM183.376 2.97554H188.976V30.9355H183.376V18.6555H172.216V13.0555H183.376V2.97554ZM166.616 2.97554H172.216V13.0555H166.616V2.97554ZM166.616 30.9355V18.6555H172.216V30.9355H166.616Z" fill="#6E5FED"/>
<defs>
<clipPath id="clip0_2095_5893">
<rect width="32" height="32" fill="white" transform="translate(0 0.935547)"/>
</clipPath>
</defs>
</svg>
