<svg width="138" height="47" viewBox="0 0 138 47" fill="none" xmlns="http://www.w3.org/2000/svg">
<path d="M131.729 6.91277C131.176 2.96094 127.796 0.0205078 123.806 0.0205078H8.4956C4.07733 0.0205078 0.495605 3.60223 0.495605 8.02051V38.3813C0.495605 42.7996 4.07733 46.3813 8.49561 46.3813H128.051C132.909 46.3813 136.646 42.0856 135.974 37.2736L131.729 6.91277Z" fill="#734AE8"/>
<g clip-path="url(#clip0_1281_4319)">
<path d="M35.0629 11.3836V6.80859H23.2967V7.94859H18.5872V9.09609H15.0589V17.0986H13.8854V19.3786H12.7041V30.8086H37.41V11.3836H35.0629ZM18.5872 29.6686H13.8854V22.8061H18.5872V29.6686ZM18.5872 21.6661H16.2401V10.2361H18.5872V21.6661ZM19.7684 9.09609H23.2967V10.2361H20.942V21.6661H19.7684V9.09609ZM23.2967 11.3836V21.6661H22.1232V11.3836H23.2967ZM24.4703 29.6686H19.7684V22.8061H24.4703V29.6686ZM36.2365 29.6686H25.6515V21.6661H24.4703V7.94859H33.8817V11.3836H30.3534V12.5236H36.2365V29.6686Z" fill="#E3DBFB"/>
<path d="M33.8818 22.8062H32.7083V23.9537H33.8818V22.8062Z" fill="#E3DBFB"/>
<path d="M33.8818 20.5259H32.7083V21.6659H33.8818V20.5259Z" fill="#E3DBFB"/>
<path d="M32.7081 23.9536H30.3533V25.0936H32.7081V23.9536Z" fill="#E3DBFB"/>
<path d="M30.3535 22.8062H29.1799V23.9537H30.3535V22.8062Z" fill="#E3DBFB"/>
<path d="M30.3535 20.5259H29.1799V21.6659H30.3535V20.5259Z" fill="#E3DBFB"/>
<path d="M30.3535 12.5234H29.1799V14.8109H30.3535V12.5234Z" fill="#E3DBFB"/>
<path d="M29.1798 14.811H27.9985V17.0985H29.1798V14.811Z" fill="#E3DBFB"/>
<path d="M27.9985 17.0986H26.825V19.3786H27.9985V17.0986Z" fill="#E3DBFB"/>
<path d="M27.9985 9.09619H26.825V10.2362H27.9985V9.09619Z" fill="#E3DBFB"/>
<path d="M26.8251 19.3784H25.6516V21.6659H26.8251V19.3784Z" fill="#E3DBFB"/>
<path d="M23.2967 25.0938H20.9419V27.3813H23.2967V25.0938Z" fill="#E3DBFB"/>
<path d="M17.4136 25.0938H15.0588V27.3813H17.4136V25.0938Z" fill="#E3DBFB"/>
</g>
<path d="M50.6714 29.1813V12.8813H56.9914C62.3914 12.8813 65.7314 16.2213 65.7314 21.0413C65.7314 25.8613 62.3914 29.1813 56.9914 29.1813H50.6714ZM54.3114 25.9613H57.0514C60.1714 25.9613 62.0914 24.1813 62.0914 21.0413C62.0914 17.9013 60.1714 16.1013 57.0514 16.1013H54.3114V25.9613ZM72.9175 29.4613C69.5575 29.4613 67.2175 26.8813 67.2175 23.3213C67.2175 19.7613 69.5575 17.1813 72.9175 17.1813C74.4575 17.1813 75.5775 17.7213 76.2775 18.6613V17.4613H79.8375V29.1813H76.2775V27.9813C75.5775 28.9213 74.4575 29.4613 72.9175 29.4613ZM73.4775 26.4213C75.2175 26.4213 76.3375 25.1213 76.3375 23.3213C76.3375 21.5213 75.2175 20.2213 73.4775 20.2213C71.7775 20.2213 70.6975 21.5213 70.6975 23.3213C70.6975 25.1213 71.7775 26.4213 73.4775 26.4213ZM82.5246 29.1813V17.4613H86.0846V18.6613C86.7846 17.7213 87.8646 17.1813 89.3646 17.1813C92.0846 17.1813 93.9446 19.1613 93.9446 22.4013V29.1813H90.3846V23.0013C90.3846 21.2213 89.6646 20.2413 88.3246 20.2413C86.9246 20.2413 86.0846 21.3413 86.0846 23.1613V29.1813H82.5246ZM100.753 29.4613C98.0327 29.4613 96.1727 27.4813 96.1727 24.2413V17.4613H99.7327V23.6413C99.7327 25.4213 100.453 26.4013 101.793 26.4013C103.193 26.4013 104.033 25.3013 104.033 23.4813V17.4613H107.593V29.1813H104.033V27.9813C103.333 28.9213 102.253 29.4613 100.753 29.4613ZM110.278 29.1813V12.3813H113.838V18.6613C114.538 17.7213 115.618 17.1813 117.118 17.1813C119.838 17.1813 121.698 19.1613 121.698 22.4013V29.1813H118.138V23.0013C118.138 21.2213 117.418 20.2413 116.078 20.2413C114.678 20.2413 113.838 21.3413 113.838 23.1613V29.1813H110.278Z" fill="white"/>
<defs>
<clipPath id="clip0_1281_4319">
<rect width="24.7059" height="24" fill="white" transform="translate(12.7041 6.80859)"/>
</clipPath>
</defs>
</svg>
