<svg width="209" height="61" viewBox="0 0 209 61" fill="none" xmlns="http://www.w3.org/2000/svg">
<g clip-path="url(#clip0_1503_1839)">
<path d="M53.9978 11.5928V0.155273H25.899V3.00527H14.6522V5.87402H6.22622V25.8803H3.42372V31.5803H0.602783V60.1553H59.6028V11.5928H53.9978ZM14.6522 57.3053H3.42372V40.149H14.6522V57.3053ZM14.6522 37.299H9.04716V8.72402H14.6522V37.299ZM17.4731 5.87402H25.899V8.72402H20.2756V37.299H17.4731V5.87402ZM25.899 11.5928V37.299H23.0965V11.5928H25.899ZM28.7015 57.3053H17.4731V40.149H28.7015V57.3053ZM56.8003 57.3053H31.5225V37.299H28.7015V3.00527H51.1768V11.5928H42.7509V14.4428H56.8003V57.3053Z" fill="#734AE8"/>
<path d="M51.1768 40.1489H48.3743V43.0177H51.1768V40.1489Z" fill="#734AE8"/>
<path d="M51.1768 34.4492H48.3743V37.2992H51.1768V34.4492Z" fill="#734AE8"/>
<path d="M48.3744 43.0176H42.751V45.8676H48.3744V43.0176Z" fill="#734AE8"/>
<path d="M42.751 40.1489H39.9485V43.0177H42.751V40.1489Z" fill="#734AE8"/>
<path d="M42.751 34.4492H39.9485V37.2992H42.751V34.4492Z" fill="#734AE8"/>
<path d="M42.751 14.4429H39.9485V20.1616H42.751V14.4429Z" fill="#734AE8"/>
<path d="M39.9484 20.1616H37.1274V25.8804H39.9484V20.1616Z" fill="#734AE8"/>
<path d="M37.1274 25.8804H34.325V31.5804H37.1274V25.8804Z" fill="#734AE8"/>
<path d="M37.1274 5.87402H34.325V8.72402H37.1274V5.87402Z" fill="#734AE8"/>
<path d="M34.325 31.5801H31.5225V37.2988H34.325V31.5801Z" fill="#734AE8"/>
<path d="M25.8991 45.8677H20.2756V51.5864H25.8991V45.8677Z" fill="#734AE8"/>
<path d="M11.8498 45.8677H6.22632V51.5864H11.8498V45.8677Z" fill="#734AE8"/>
</g>
<path d="M72.592 56.0877V26.7477H83.968C93.688 26.7477 99.7 32.7597 99.7 41.4357C99.7 50.1117 93.688 56.0877 83.968 56.0877H72.592ZM79.144 50.2917H84.076C89.692 50.2917 93.148 47.0877 93.148 41.4357C93.148 35.7837 89.692 32.5437 84.076 32.5437H79.144V50.2917ZM114.075 56.5917C108.027 56.5917 103.815 51.9477 103.815 45.5397C103.815 39.1317 108.027 34.4877 114.075 34.4877C116.847 34.4877 118.863 35.4597 120.123 37.1517V34.9917H126.531V56.0877H120.123V53.9277C118.863 55.6197 116.847 56.5917 114.075 56.5917ZM115.083 51.1197C118.215 51.1197 120.231 48.7797 120.231 45.5397C120.231 42.2997 118.215 39.9597 115.083 39.9597C112.023 39.9597 110.079 42.2997 110.079 45.5397C110.079 48.7797 112.023 51.1197 115.083 51.1197ZM132.808 56.0877V34.9917H139.216V37.1517C140.476 35.4597 142.42 34.4877 145.12 34.4877C150.016 34.4877 153.364 38.0517 153.364 43.8837V56.0877H146.956V44.9637C146.956 41.7597 145.66 39.9957 143.248 39.9957C140.728 39.9957 139.216 41.9757 139.216 45.2517V56.0877H132.808ZM167.058 56.5917C162.162 56.5917 158.814 53.0277 158.814 47.1957V34.9917H165.222V46.1157C165.222 49.3197 166.518 51.0837 168.93 51.0837C171.45 51.0837 172.962 49.1037 172.962 45.8277V34.9917H179.37V56.0877H172.962V53.9277C171.702 55.6197 169.758 56.5917 167.058 56.5917ZM185.645 56.0877V25.8477H192.053V37.1517C193.313 35.4597 195.257 34.4877 197.957 34.4877C202.853 34.4877 206.201 38.0517 206.201 43.8837V56.0877H199.793V44.9637C199.793 41.7597 198.497 39.9957 196.085 39.9957C193.565 39.9957 192.053 41.9757 192.053 45.2517V56.0877H185.645Z" fill="#734AE8"/>
<defs>
<clipPath id="clip0_1503_1839">
<rect width="59" height="60" fill="white" transform="translate(0.602783 0.155273)"/>
</clipPath>
</defs>
</svg>
