<svg width="174" height="39" viewBox="0 0 174 39" fill="none" xmlns="http://www.w3.org/2000/svg">
<path d="M32.964 4.67593V0.163927H0.324V4.67593H14.148V38.6119H19.188V4.67593H32.964ZM69.2453 4.67593V0.163927H36.6053V4.67593H50.4293V38.6119H55.4693V4.67593H69.2453Z" fill="#694AC2"/>
<path d="M107.279 8.77993L100.439 31.9639L93.5985 8.77993H89.5665L82.7625 31.8919L75.9225 8.77993H71.9985L80.7465 37.6159H84.5625L91.5465 14.6119L98.4945 37.6159H102.311L111.095 8.77993H107.279ZM121.802 16.5199C115.682 16.5199 111.254 21.1279 111.254 27.3199C111.254 33.5119 115.682 38.1199 121.802 38.1199C127.886 38.1199 132.314 33.5119 132.314 27.3199C132.314 21.1279 127.886 16.5199 121.802 16.5199ZM121.802 19.7959C125.87 19.7959 128.678 23.0359 128.678 27.3199C128.678 31.6039 125.87 34.8439 121.802 34.8439C117.698 34.8439 114.89 31.6039 114.89 27.3199C114.89 23.0359 117.698 19.7959 121.802 19.7959ZM137.049 17.0239V37.6159H140.757V26.9599C140.757 23.2159 143.709 19.8319 147.921 19.8319C149.181 19.8319 150.189 20.0479 150.981 20.4079V16.8799C150.261 16.6279 149.433 16.5199 148.173 16.5199C144.141 16.5199 141.657 18.6439 140.757 20.1919V17.0239H137.049ZM162.68 38.1199C166.424 38.1199 168.944 36.3199 169.988 34.5559V37.6159H173.696V7.87993H169.988V20.0839C168.944 18.3199 166.424 16.5199 162.68 16.5199C156.848 16.5199 152.492 21.1639 152.492 27.3199C152.492 33.4759 156.848 38.1199 162.68 38.1199ZM163.004 34.8439C158.864 34.8439 156.128 31.6039 156.128 27.3199C156.128 23.0359 158.864 19.7959 163.004 19.7959C167.18 19.7959 170.06 23.0359 170.06 27.3199C170.06 31.6039 167.18 34.8439 163.004 34.8439Z" fill="#4AD0E2"/>
</svg>
