<svg xmlns="http://www.w3.org/2000/svg" width="30" height="30" viewBox="0 0 30 30" fill="none">
  <path d="M21.877 27.5H9.37695C8.05087 27.5 6.7791 26.9161 5.84142 25.8768C4.90374 24.8374 4.37695 23.4278 4.37695 21.9579V13.2403C4.37694 12.2873 4.5986 11.3505 5.02054 10.5202C5.44248 9.68995 6.05044 8.9943 6.7857 8.50044L13.0357 4.30233C13.8171 3.77749 14.7133 3.5 15.627 3.5C16.5406 3.5 17.4368 3.77749 18.2182 4.30233L24.4682 8.50044C25.2033 8.99417 25.8111 9.68961 26.2331 10.5196C26.655 11.3496 26.8768 12.2862 26.877 13.2389V21.9579C26.877 23.4278 26.3502 24.8374 25.4125 25.8768C24.4748 26.9161 23.203 27.5 21.877 27.5ZM11.877 21.9579H15.627H19.377" fill="url(#paint0_linear_3496_22)"/>
  <path d="M21.877 27.5H9.37695C8.05087 27.5 6.7791 26.9161 5.84142 25.8768C4.90374 24.8374 4.37695 23.4278 4.37695 21.9579V13.2403C4.37694 12.2873 4.5986 11.3505 5.02054 10.5202C5.44248 9.68995 6.05044 8.9943 6.7857 8.50044L13.0357 4.30233C13.8171 3.77749 14.7133 3.5 15.627 3.5C16.5406 3.5 17.4368 3.77749 18.2182 4.30233L24.4682 8.50044C25.2033 8.99417 25.8111 9.68961 26.2331 10.5196C26.655 11.3496 26.8768 12.2862 26.877 13.2389V21.9579C26.877 23.4278 26.3502 24.8374 25.4125 25.8768C24.4748 26.9161 23.203 27.5 21.877 27.5ZM11.877 21.9579H15.627H19.377" fill="url(#paint1_linear_3496_22)"/>
  <path d="M21.877 27.5H9.37695C8.05087 27.5 6.7791 26.9161 5.84142 25.8768C4.90374 24.8374 4.37695 23.4278 4.37695 21.9579V13.2403C4.37694 12.2873 4.5986 11.3505 5.02054 10.5202C5.44248 9.68995 6.05044 8.9943 6.7857 8.50044L13.0357 4.30233C13.8171 3.77749 14.7133 3.5 15.627 3.5C16.5406 3.5 17.4368 3.77749 18.2182 4.30233L24.4682 8.50044C25.2033 8.99417 25.8111 9.68961 26.2331 10.5196C26.655 11.3496 26.8768 12.2862 26.877 13.2389V21.9579C26.877 23.4278 26.3502 24.8374 25.4125 25.8768C24.4748 26.9161 23.203 27.5 21.877 27.5ZM11.877 21.9579H15.627H19.377" fill="url(#paint2_linear_3496_22)"/>
  <path d="M11.877 21.9579H15.627H19.377M21.877 27.5H9.37695C8.05087 27.5 6.7791 26.9161 5.84142 25.8768C4.90374 24.8374 4.37695 23.4278 4.37695 21.9579V13.2403C4.37694 12.2873 4.5986 11.3505 5.02054 10.5202C5.44248 9.68995 6.05044 8.9943 6.7857 8.50044L13.0357 4.30233C13.8171 3.77749 14.7133 3.5 15.627 3.5C16.5406 3.5 17.4368 3.77749 18.2182 4.30233L24.4682 8.50044C25.2033 8.99418 25.8111 9.68961 26.2331 10.5196C26.655 11.3496 26.8768 12.2862 26.877 13.2389V21.9579C26.877 23.4278 26.3502 24.8374 25.4125 25.8768C24.4748 26.9161 23.203 27.5 21.877 27.5Z" stroke="url(#paint3_linear_3496_22)" stroke-width="2" stroke-linecap="round" stroke-linejoin="round"/>
  <path d="M11.877 22.25H15.627H19.377" fill="url(#paint4_linear_3496_22)"/>
  <path d="M11.877 22.25H15.627H19.377" stroke="white" stroke-width="2" stroke-linecap="round" stroke-linejoin="round"/>
  <defs>
    <linearGradient id="paint0_linear_3496_22" x1="15.627" y1="3.5" x2="15.627" y2="27.5" gradientUnits="userSpaceOnUse">
      <stop stop-color="#9D5FED"/>
      <stop offset="0.328125" stop-color="#7B6CED"/>
      <stop offset="0.697917" stop-color="#5B78ED"/>
      <stop offset="1" stop-color="#5A92FF"/>
    </linearGradient>
    <linearGradient id="paint1_linear_3496_22" x1="15.627" y1="3.5" x2="15.627" y2="27.5" gradientUnits="userSpaceOnUse">
      <stop stop-color="#9D5FED"/>
      <stop offset="0.328125" stop-color="#7B6CED"/>
      <stop offset="0.697917" stop-color="#5B78ED"/>
      <stop offset="1" stop-color="#5A92FF"/>
    </linearGradient>
    <linearGradient id="paint2_linear_3496_22" x1="15.627" y1="3.5" x2="15.627" y2="27.5" gradientUnits="userSpaceOnUse">
      <stop stop-color="#9D5FED"/>
      <stop offset="0.328125" stop-color="#7B6CED"/>
      <stop offset="0.697917" stop-color="#5B78ED"/>
      <stop offset="1" stop-color="#5A92FF"/>
    </linearGradient>
    <linearGradient id="paint3_linear_3496_22" x1="15.627" y1="3.5" x2="15.627" y2="27.5" gradientUnits="userSpaceOnUse">
      <stop stop-color="#9D5FED"/>
      <stop offset="0.328125" stop-color="#7B6CED"/>
      <stop offset="0.697917" stop-color="#5B78ED"/>
      <stop offset="1" stop-color="#5A92FF"/>
    </linearGradient>
    <linearGradient id="paint4_linear_3496_22" x1="15.627" y1="22.25" x2="15.627" y2="23.25" gradientUnits="userSpaceOnUse">
      <stop stop-color="#9D5FED"/>
      <stop offset="0.328125" stop-color="#7B6CED"/>
      <stop offset="0.697917" stop-color="#5B78ED"/>
      <stop offset="1" stop-color="#5A92FF"/>
    </linearGradient>
  </defs>
</svg>