<svg xmlns="http://www.w3.org/2000/svg" width="30" height="30" viewBox="0 0 30 30" fill="none">
  <path d="M11.9385 21.9579H19.4385M21.9385 27.5H9.43848C8.11239 27.5 6.84062 26.9161 5.90294 25.8768C4.96526 24.8374 4.43848 23.4278 4.43848 21.9579V13.2403C4.43846 12.2873 4.66012 11.3505 5.08206 10.5202C5.504 9.68995 6.11196 8.9943 6.84723 8.50044L13.0972 4.30233C13.8786 3.77749 14.7748 3.5 15.6885 3.5C16.6021 3.5 17.4983 3.77749 18.2797 4.30233L24.5297 8.50044C25.2648 8.99418 25.8727 9.68961 26.2946 10.5196C26.7165 11.3496 26.9383 12.2862 26.9385 13.2389V21.9579C26.9385 23.4278 26.4117 24.8374 25.474 25.8768C24.5363 26.9161 23.2646 27.5 21.9385 27.5Z" stroke="#DFD9FF" stroke-width="2" stroke-linecap="round" stroke-linejoin="round"/>
</svg>