<svg xmlns="http://www.w3.org/2000/svg" width="30" height="30" viewBox="0 0 30 30" fill="none">
  <path d="M15.9778 3C9.35018 3 3.97778 8.3724 3.97778 15C3.97778 21.6276 9.35018 27 15.9778 27C22.6054 27 27.9778 21.6276 27.9778 15C27.9778 8.3724 22.6054 3 15.9778 3Z" stroke="#DFD9FF" stroke-width="2" stroke-linecap="round" stroke-linejoin="round"/>
  <path d="M6.70215 22.4075C6.70215 22.4075 9.37695 18.9923 15.9769 18.9923C22.5769 18.9923 25.2529 22.4075 25.2529 22.4075M15.9769 14.7923C16.9317 14.7923 17.8474 14.413 18.5225 13.7379C19.1977 13.0627 19.5769 12.1471 19.5769 11.1923C19.5769 10.2375 19.1977 9.32183 18.5225 8.6467C17.8474 7.97157 16.9317 7.59229 15.9769 7.59229C15.0222 7.59229 14.1065 7.97157 13.4314 8.6467C12.7562 9.32183 12.3769 10.2375 12.3769 11.1923C12.3769 12.1471 12.7562 13.0627 13.4314 13.7379C14.1065 14.413 15.0222 14.7923 15.9769 14.7923Z" stroke="#DFD9FF" stroke-width="2" stroke-linecap="round" stroke-linejoin="round"/>
</svg>