<svg xmlns="http://www.w3.org/2000/svg" width="30" height="30" viewBox="0 0 30 30" fill="none">
  <defs>
    <linearGradient id="paint0_linear_1281_2675" x1="15.1792" y1="2.5" x2="15.1792" y2="26.5" gradientUnits="userSpaceOnUse">
      <stop stop-color="#9D5FED"/>
      <stop offset="0.328125" stop-color="#7B6CED"/>
      <stop offset="0.697917" stop-color="#5B78ED"/>
      <stop offset="1" stop-color="#5A92FF"/>
    </linearGradient>
    <linearGradient id="paint1_linear_1281_2675" x1="15.1792" y1="2.5" x2="15.1792" y2="26.5" gradientUnits="userSpaceOnUse">
      <stop stop-color="#9D5FED"/>
      <stop offset="0.328125" stop-color="#7B6CED"/>
      <stop offset="0.697917" stop-color="#5B78ED"/>
      <stop offset="1" stop-color="#5A92FF"/>
    </linearGradient>
  </defs>
  <path d="M15.1792 2.5C8.5516 2.5 3.1792 7.8724 3.1792 14.5C3.1792 21.1276 8.5516 26.5 15.1792 26.5C21.8068 26.5 27.1792 21.1276 27.1792 14.5C27.1792 7.8724 21.8068 2.5 15.1792 2.5Z" fill="url(#paint0_linear_1281_2675)" stroke="url(#paint1_linear_1281_2675)" stroke-width="2" stroke-linecap="round" stroke-linejoin="round"/>
  <path d="M22.0228 21.1754C20.4685 20.3975 18.2248 19.6992 15.1789 19.6992C12.1329 19.6992 9.88951 20.3975 8.33545 21.1754H22.0228Z" stroke="white" stroke-width="2" stroke-linecap="round" stroke-linejoin="round"/>
  <path d="M15.1792 15.3242C16.1738 15.3242 17.1276 14.9291 17.8308 14.2259C18.5341 13.5226 18.9292 12.5688 18.9292 11.5742C18.9292 10.5797 18.5341 9.62583 17.8308 8.92257C17.1276 8.21931 16.1738 7.82422 15.1792 7.82422C14.1846 7.82422 13.2308 8.21931 12.5275 8.92257C11.8243 9.62583 11.4292 10.5797 11.4292 11.5742C11.4292 12.5688 11.8243 13.5226 12.5275 14.2259C13.2308 14.9291 14.1846 15.3242 15.1792 15.3242Z" fill="white"/>
  
</svg>