<svg xmlns="http://www.w3.org/2000/svg" width="30" height="30" viewBox="0 0 30 30" fill="none">
  <path d="M22.8508 10C24.9219 10 26.6008 8.32107 26.6008 6.25C26.6008 4.17893 24.9219 2.5 22.8508 2.5C20.7798 2.5 19.1008 4.17893 19.1008 6.25C19.1008 8.32107 20.7798 10 22.8508 10Z" fill="url(#paint0_linear_1348_2078)"/>
  <path d="M7.85083 18.75C9.9219 18.75 11.6008 17.0711 11.6008 15C11.6008 12.9289 9.9219 11.25 7.85083 11.25C5.77976 11.25 4.10083 12.9289 4.10083 15C4.10083 17.0711 5.77976 18.75 7.85083 18.75Z" fill="url(#paint1_linear_1348_2078)"/>
  <path d="M22.8508 27.5C24.9219 27.5 26.6008 25.8211 26.6008 23.75C26.6008 21.6789 24.9219 20 22.8508 20C20.7798 20 19.1008 21.6789 19.1008 23.75C19.1008 25.8211 20.7798 27.5 22.8508 27.5Z" fill="url(#paint2_linear_1348_2078)"/>
  <path d="M11.0883 16.8875L19.6258 21.8625M19.6133 8.1375L11.0883 13.1125M26.6008 6.25C26.6008 8.32107 24.9219 10 22.8508 10C20.7798 10 19.1008 8.32107 19.1008 6.25C19.1008 4.17893 20.7798 2.5 22.8508 2.5C24.9219 2.5 26.6008 4.17893 26.6008 6.25ZM11.6008 15C11.6008 17.0711 9.9219 18.75 7.85083 18.75C5.77976 18.75 4.10083 17.0711 4.10083 15C4.10083 12.9289 5.77976 11.25 7.85083 11.25C9.9219 11.25 11.6008 12.9289 11.6008 15ZM26.6008 23.75C26.6008 25.8211 24.9219 27.5 22.8508 27.5C20.7798 27.5 19.1008 25.8211 19.1008 23.75C19.1008 21.6789 20.7798 20 22.8508 20C24.9219 20 26.6008 21.6789 26.6008 23.75Z" stroke="url(#paint3_linear_1348_2078)" stroke-width="2" stroke-linecap="round" stroke-linejoin="round"/>
  <defs>
    <linearGradient id="paint0_linear_1348_2078" x1="15.3508" y1="2.5" x2="15.3508" y2="27.5" gradientUnits="userSpaceOnUse">
      <stop stop-color="#9D5FED"/>
      <stop offset="0.328125" stop-color="#7B6CED"/>
      <stop offset="0.697917" stop-color="#5B78ED"/>
      <stop offset="1" stop-color="#5A92FF"/>
    </linearGradient>
    <linearGradient id="paint1_linear_1348_2078" x1="15.3508" y1="2.5" x2="15.3508" y2="27.5" gradientUnits="userSpaceOnUse">
      <stop stop-color="#9D5FED"/>
      <stop offset="0.328125" stop-color="#7B6CED"/>
      <stop offset="0.697917" stop-color="#5B78ED"/>
      <stop offset="1" stop-color="#5A92FF"/>
    </linearGradient>
    <linearGradient id="paint2_linear_1348_2078" x1="15.3508" y1="2.5" x2="15.3508" y2="27.5" gradientUnits="userSpaceOnUse">
      <stop stop-color="#9D5FED"/>
      <stop offset="0.328125" stop-color="#7B6CED"/>
      <stop offset="0.697917" stop-color="#5B78ED"/>
      <stop offset="1" stop-color="#5A92FF"/>
    </linearGradient>
    <linearGradient id="paint3_linear_1348_2078" x1="15.3508" y1="2.5" x2="15.3508" y2="27.5" gradientUnits="userSpaceOnUse">
      <stop stop-color="#9D5FED"/>
      <stop offset="0.328125" stop-color="#7B6CED"/>
      <stop offset="0.697917" stop-color="#5B78ED"/>
      <stop offset="1" stop-color="#5A92FF"/>
    </linearGradient>
  </defs>
</svg>