<svg xmlns="http://www.w3.org/2000/svg" width="30" height="30" viewBox="0 0 30 30" fill="none">
  <path d="M11.426 16.8875L19.9635 21.8625M19.951 8.1375L11.426 13.1125M26.9385 6.25C26.9385 8.32107 25.2595 10 23.1885 10C21.1174 10 19.4385 8.32107 19.4385 6.25C19.4385 4.17893 21.1174 2.5 23.1885 2.5C25.2595 2.5 26.9385 4.17893 26.9385 6.25ZM11.9385 15C11.9385 17.0711 10.2595 18.75 8.18848 18.75C6.11741 18.75 4.43848 17.0711 4.43848 15C4.43848 12.9289 6.11741 11.25 8.18848 11.25C10.2595 11.25 11.9385 12.9289 11.9385 15ZM26.9385 23.75C26.9385 25.8211 25.2595 27.5 23.1885 27.5C21.1174 27.5 19.4385 25.8211 19.4385 23.75C19.4385 21.6789 21.1174 20 23.1885 20C25.2595 20 26.9385 21.6789 26.9385 23.75Z" stroke="#DFD9FF" stroke-width="2" stroke-linecap="round" stroke-linejoin="round"/>
</svg>