<svg xmlns="http://www.w3.org/2000/svg" width="30" height="30" viewBox="0 0 30 30" fill="none">
  <path d="M3.37695 17.7V23.64C3.37695 23.8548 3.46299 24.0609 3.61615 24.2128C3.7693 24.3647 3.97703 24.45 4.19362 24.45H11.5436M23.7936 17.7V23.64C23.7936 23.8548 23.7076 24.0609 23.5544 24.2128C23.4013 24.3647 23.1935 24.45 22.977 24.45H16.9881M16.9881 5.55H22.977C23.1935 5.55 23.4013 5.63534 23.5544 5.78724C23.7076 5.93915 23.7936 6.14517 23.7936 6.36V12.3M3.37695 12.3V6.36C3.37695 6.14517 3.46299 5.93915 3.61615 5.78724C3.7693 5.63534 3.97703 5.55 4.19362 5.55H11.5436M16.9881 24.45V25.8C16.9881 26.5161 16.7013 27.2028 16.1907 27.7092C15.6802 28.2155 14.9878 28.5 14.2658 28.5C13.5439 28.5 12.8515 28.2155 12.3409 27.7092C11.8304 27.2028 11.5436 26.5161 11.5436 25.8V24.45M3.37695 12.3H4.73806C5.46004 12.3 6.15245 12.5845 6.66297 13.0908C7.17348 13.5972 7.46029 14.2839 7.46029 15C7.46029 15.7161 7.17348 16.4028 6.66297 16.9092C6.15245 17.4155 5.46004 17.7 4.73806 17.7H3.37695M23.7936 12.3H25.1547C25.8767 12.3 26.5691 12.5845 27.0796 13.0908C27.5902 13.5972 27.877 14.2839 27.877 15C27.877 15.7161 27.5902 16.4028 27.0796 16.9092C26.5691 17.4155 25.8767 17.7 25.1547 17.7H23.7936M16.9881 5.55V4.2C16.9881 3.48392 16.7013 2.79716 16.1907 2.29081C15.6802 1.78446 14.9878 1.5 14.2658 1.5C13.5439 1.5 12.8515 1.78446 12.3409 2.29081C11.8304 2.79716 11.5436 3.48392 11.5436 4.2V5.55" stroke="#DFD9FF" stroke-width="2" stroke-linecap="round" stroke-linejoin="round"/>
</svg>