<svg xmlns="http://www.w3.org/2000/svg" width="30" height="30" viewBox="0 0 30 30" fill="none">
  <defs>
    <linearGradient id="paint0_linear_3496_994" x1="15.6885" y1="1.5" x2="15.6885" y2="28.5" gradientUnits="userSpaceOnUse">
      <stop stop-color="#9D5FED"/>
      <stop offset="0.328125" stop-color="#7B6CED"/>
      <stop offset="0.697917" stop-color="#5B78ED"/>
      <stop offset="1" stop-color="#5A92FF"/>
    </linearGradient>
  </defs>
  <path fill-rule="evenodd" clip-rule="evenodd" d="M11.9636 2.52513C12.62 1.86875 13.5102 1.5 14.4385 1.5C15.3667 1.5 16.257 1.86875 16.9134 2.52513C17.5697 3.1815 17.9385 4.07174 17.9385 5V5.25H22.4385C22.9026 5.25 23.3477 5.43438 23.6759 5.76256C24.0041 6.09075 24.1885 6.53587 24.1885 7V11.5H24.4385C25.3667 11.5 26.257 11.8687 26.9134 12.5251C27.5697 13.1815 27.9385 14.0717 27.9385 15C27.9385 15.9283 27.5697 16.8185 26.9134 17.4749C26.257 18.1313 25.3667 18.5 24.4385 18.5H24.1885V23C24.1885 23.4641 24.0041 23.9092 23.6759 24.2374C23.3477 24.5656 22.9026 24.75 22.4385 24.75H17.9385V25C17.9385 25.9283 17.5697 26.8185 16.9134 27.4749C16.257 28.1313 15.3667 28.5 14.4385 28.5C13.5102 28.5 12.62 28.1312 11.9636 27.4749C11.3072 26.8185 10.9385 25.9283 10.9385 25V24.75H5.18848C4.72435 24.75 4.27923 24.5656 3.95104 24.2374C3.62285 23.9092 3.43848 23.4641 3.43848 23V17.5C3.43848 16.9477 3.88619 16.5 4.43848 16.5H5.68848C6.0863 16.5 6.46783 16.342 6.74914 16.0607C7.03044 15.7794 7.18848 15.3978 7.18848 15C7.18848 14.6022 7.03044 14.2206 6.74914 13.9393C6.46783 13.658 6.0863 13.5 5.68848 13.5H4.43848C3.88619 13.5 3.43848 13.0523 3.43848 12.5V7C3.43848 6.53587 3.62285 6.09075 3.95104 5.76256C4.27923 5.43438 4.72435 5.25 5.18848 5.25H10.9385V5C10.9385 4.07174 11.3072 3.1815 11.9636 2.52513Z" fill="url(#paint0_linear_3496_994)"/>

</svg>