<svg
  xmlns="http://www.w3.org/2000/svg"
  width="52"
  height="53"
  viewBox="0 0 52 53"
  fill="none"
>
  <g clip-path="url(#clip0_3029_6884)">
    <path
      d="M45.1523 50.0986V30.2898H49.9973V5.52482H45.1523V3.03857H42.7139V50.0986H45.1523ZM45.1523 7.99482H47.5748V12.9511H45.1523V7.99482ZM45.1523 15.4211H47.5748V20.3773H45.1523V15.4211ZM45.1523 22.8636H47.5748V27.8036H45.1523V22.8636Z"
      fill="#CAC0FF"
    />
    <path
      d="M6.28906 50.0981H42.7063V52.5681H6.28906V50.0981Z"
      fill="#CAC0FF"
    />
    <path
      d="M35.4229 40.186H37.8613V42.6723H35.4229V40.186Z"
      fill="#CAC0FF"
    />
    <path
      d="M30.5615 45.1421H37.8609V47.6121H30.5615V45.1421Z"
      fill="#CAC0FF"
    />
    <path
      d="M35.4305 27.8035V25.3335H37.869V12.951H35.4305V10.481H15.9868V12.951H13.5723V25.3335H15.9868V27.8035H35.4305ZM18.4332 15.421H33.0001V17.9072H18.4332V15.421ZM18.4332 20.3772H33.0001V22.8635H18.4332V20.3772Z"
      fill="#CAC0FF"
    />
    <path
      d="M30.5615 40.186H33V42.6723H30.5615V40.186Z"
      fill="#CAC0FF"
    />
    <path
      d="M6.28906 0.568359H42.7063V3.03836H6.28906V0.568359Z"
      fill="#CAC0FF"
    />
    <path
      d="M8.71117 45.1423V42.6723H6.28867V35.2298H8.71117V32.7598H6.28867V27.8036H8.71117V25.3336H6.28867V20.3773H8.71117V17.9073H6.28867V10.4811H8.71117V7.99482H6.28867V3.03857H3.85023V7.99482H1.42773V10.4811H3.85023V17.9073H1.42773V20.3773H3.85023V25.3336H1.42773V27.8036H3.85023V32.7598H1.42773V35.2298H3.85023V42.6723H1.42773V45.1423H3.85023V50.0986H6.28867V45.1423H8.71117Z"
      fill="#CAC0FF"
    />
  </g>
  <defs>
    <clipPath id="clip0_3029_6884">
      <rect
        width="51"
        height="52"
        fill="white"
        transform="translate(0.208984 0.568359)"
      />
    </clipPath>
  </defs>
</svg>