<svg width="52" height="13" viewBox="0 0 52 13" fill="none" xmlns="http://www.w3.org/2000/svg">
<path d="M5.82595 12.456C4.74795 12.456 3.96395 12.078 3.47395 11.42V12.26H0.981945V0.499999H3.47395V4.896C3.96395 4.238 4.74795 3.86 5.82595 3.86C8.17795 3.86 9.81595 5.666 9.81595 8.158C9.81595 10.65 8.17795 12.456 5.82595 12.456ZM5.43395 10.328C6.62395 10.328 7.37995 9.418 7.37995 8.158C7.37995 6.898 6.62395 5.988 5.43395 5.988C4.21595 5.988 3.43195 6.898 3.43195 8.158C3.43195 9.418 4.21595 10.328 5.43395 10.328ZM14.3569 12.456C12.4529 12.456 11.1509 11.07 11.1509 8.802V4.056H13.6429V8.382C13.6429 9.628 14.1469 10.314 15.0849 10.314C16.0649 10.314 16.6529 9.544 16.6529 8.27V4.056H19.1449V12.26H16.6529V11.42C16.1629 12.078 15.4069 12.456 14.3569 12.456ZM26.0509 4.056V6.198H24.4269V12.26H21.9349V6.198H20.3109V4.056H21.9349V1.62H24.4269V4.056H26.0509ZM32.4767 4.056V6.198H30.8527V12.26H28.3607V6.198H26.7367V4.056H28.3607V1.62H30.8527V4.056H32.4767ZM37.4003 3.86C39.9343 3.86 41.7543 5.666 41.7543 8.158C41.7543 10.65 39.9343 12.456 37.4003 12.456C34.8663 12.456 33.0463 10.65 33.0463 8.158C33.0463 5.666 34.8663 3.86 37.4003 3.86ZM37.4003 5.988C36.2243 5.988 35.4543 6.898 35.4543 8.158C35.4543 9.418 36.2243 10.328 37.4003 10.328C38.5763 10.328 39.3463 9.418 39.3463 8.158C39.3463 6.898 38.5763 5.988 37.4003 5.988ZM43.2144 12.26V4.056H45.7064V4.896C46.1964 4.238 46.9524 3.86 48.0024 3.86C49.9064 3.86 51.2084 5.246 51.2084 7.514V12.26H48.7164V7.934C48.7164 6.688 48.2124 6.002 47.2744 6.002C46.2944 6.002 45.7064 6.772 45.7064 8.046V12.26H43.2144Z" fill="#6E5FED"/>
</svg>
