<svg width="18" height="23" viewBox="0 0 18 23" fill="none" xmlns="http://www.w3.org/2000/svg">
<g id="apple" clip-path="url(#clip0_2231_2394)">
<g id="Group">
<path id="Vector" d="M14.7879 12.2801C14.8184 15.5489 17.6748 16.6366 17.7064 16.6505C17.6823 16.7272 17.25 18.2007 16.2016 19.7226C15.2952 21.0385 14.3545 22.3495 12.8727 22.3766C11.4166 22.4033 10.9484 21.519 9.28376 21.519C7.61957 21.519 7.09938 22.3495 5.72106 22.4033C4.2907 22.457 3.2015 20.9804 2.28762 19.6694C0.420203 16.9877 -1.00689 12.0915 0.909334 8.78655C1.86127 7.14528 3.56246 6.10596 5.40895 6.07931C6.81352 6.0527 8.13927 7.01793 8.9979 7.01793C9.85598 7.01793 11.4671 5.85715 13.1607 6.02763C13.8697 6.05694 15.86 6.31211 17.1379 8.17021C17.035 8.23362 14.7632 9.54728 14.7879 12.2801V12.2801ZM12.0514 4.25345C12.8108 3.34041 13.3219 2.06937 13.1824 0.804688C12.0879 0.848386 10.7642 1.52921 9.97911 2.44175C9.27549 3.24985 8.65927 4.54326 8.82553 5.78291C10.0456 5.87667 11.292 5.16708 12.0514 4.25345" fill="#111111"/>
</g>
</g>
<defs>
<clipPath id="clip0_2231_2394">
<rect width="18" height="22" fill="white" transform="translate(0 0.804688)"/>
</clipPath>
</defs>
</svg>
