<svg width="25" height="25" viewBox="0 0 25 25" fill="none" xmlns="http://www.w3.org/2000/svg">
<path d="M21.9731 6.85449H18.7731C17.093 6.85449 16.2529 6.85449 15.6112 7.18147C15.0467 7.46909 14.5877 7.92803 14.3001 8.49252C13.9731 9.13426 13.9731 9.97433 13.9731 11.6545V12.8545M21.9731 6.85449L18.9731 3.85449M21.9731 6.85449L18.9731 9.85449M10.9731 3.85449H8.77314C7.09299 3.85449 6.25291 3.85449 5.61117 4.18147C5.04669 4.46909 4.58775 4.92803 4.30012 5.49252C3.97314 6.13426 3.97314 6.97433 3.97314 8.65449V17.0545C3.97314 18.7346 3.97314 19.5747 4.30012 20.2165C4.58775 20.781 5.04669 21.2399 5.61117 21.5275C6.25291 21.8545 7.09299 21.8545 8.77314 21.8545H17.1731C18.8533 21.8545 19.6934 21.8545 20.3351 21.5275C20.8996 21.2399 21.3585 20.781 21.6462 20.2165C21.9731 19.5747 21.9731 18.7346 21.9731 17.0545V14.8545" stroke="white" stroke-width="2" stroke-linecap="round" stroke-linejoin="round"/>
</svg>
