<svg width="29" height="30" viewBox="0 0 29 30" fill="none" xmlns="http://www.w3.org/2000/svg">
<path d="M14.5 28.2497V17.583M14.5 17.583V12.2497M14.5 17.583L19.8334 14.9163M21.1667 8.24967C21.1667 6.48156 20.4643 4.78587 19.2141 3.53563C17.9638 2.28539 16.2681 1.58301 14.5 1.58301C12.7319 1.58301 11.0362 2.28539 9.78598 3.53563C8.53573 4.78587 7.83335 6.48156 7.83335 8.24967M10.5 8.24967H8.50002C6.5551 8.24967 4.68984 9.02229 3.31457 10.3976C1.9393 11.7728 1.16669 13.6381 1.16669 15.583C1.16669 17.5279 1.9393 19.3932 3.31457 20.7685C4.68984 22.1437 6.5551 22.9163 8.50002 22.9163H14.5H20.5C22.3892 22.9193 24.2066 22.1931 25.5735 20.8891C26.9404 19.5851 27.7513 17.8039 27.8373 15.9167C27.9232 14.0295 27.2776 12.1819 26.0349 10.7591C24.7922 9.33618 23.0483 8.44778 21.1667 8.27901" stroke="white" stroke-width="2" stroke-linecap="round" stroke-linejoin="round"/>
</svg>
