<svg width="16" height="17" viewBox="0 0 16 17" fill="none" xmlns="http://www.w3.org/2000/svg">
<g id="thumbs-up">
<path id="Icon" d="M4.66634 15.366V8.03272M1.33301 9.36605V14.0327C1.33301 14.7691 1.92996 15.366 2.66634 15.366H11.6172C12.6043 15.366 13.4438 14.6458 13.5939 13.6702L14.3119 9.0035C14.4982 7.79198 13.5609 6.69938 12.3351 6.69938H9.99967C9.63148 6.69938 9.33301 6.4009 9.33301 6.03271V3.67661C9.33301 2.76871 8.59701 2.03271 7.68912 2.03271C7.47257 2.03271 7.27633 2.16024 7.18838 2.35813L4.8423 7.63681C4.7353 7.87756 4.49655 8.03272 4.23309 8.03272H2.66634C1.92996 8.03272 1.33301 8.62967 1.33301 9.36605Z" stroke="#6E5FED" stroke-linecap="round" stroke-linejoin="round"/>
</g>
</svg>
