<svg width="52" height="53" viewBox="0 0 52 53" fill="none" xmlns="http://www.w3.org/2000/svg">
<g clip-path="url(#clip0_1494_6040)">
<path d="M21.5265 0.119141V2.58914H16.6655V5.07539H21.5265V7.54539H23.949V5.07539H28.8099V7.54539H31.2324V5.07539H36.0933V7.54539H38.5318V5.07539H40.9543V10.0316H43.3768V7.54539H45.8152V49.6491H19.104V52.1191H48.2377V49.6491H50.6602V7.54539H48.2377V5.07539H45.8152V2.58914H38.5318V0.119141H36.0933V2.58914H31.2324V0.119141H28.8099V2.58914H23.949V0.119141H21.5265Z" fill="#734AE8"/>
<path d="M38.5318 10.0312H40.9543V14.9713H38.5318V10.0312Z" fill="#734AE8"/>
<path d="M36.0933 19.9279H43.3768V17.4579H38.5318V14.9717H36.0933V19.9279Z" fill="#734AE8"/>
<path d="M33.6708 24.884H31.2324V29.8402H33.6708V27.354H43.3767V24.884H36.0933V19.9277H33.6708V24.884Z" fill="#734AE8"/>
<path d="M28.8099 34.7808H43.3768V32.3108H31.2324V29.8408H28.8099V34.7808Z" fill="#734AE8"/>
<path d="M26.3874 19.9277H28.8099V22.414H26.3874V19.9277Z" fill="#734AE8"/>
<path d="M26.3874 14.9717H28.8099V17.4579H26.3874V14.9717Z" fill="#734AE8"/>
<path d="M21.5264 39.7363H43.3767V42.2226H21.5264V39.7363Z" fill="#734AE8"/>
<path d="M19.1039 22.4141H26.3874V24.8841H19.1039V22.4141Z" fill="#734AE8"/>
<path d="M19.1039 14.9717H21.5264V17.4579H19.1039V14.9717Z" fill="#734AE8"/>
<path d="M19.1039 37.2665H28.8099V34.7803H4.52112V37.2665H16.6655V49.649H19.1039V37.2665Z" fill="#734AE8"/>
<path d="M16.6655 19.9277H19.104V22.414H16.6655V19.9277Z" fill="#734AE8"/>
<path d="M14.243 5.0752H16.6655V10.0314H14.243V5.0752Z" fill="#734AE8"/>
<path d="M11.8046 10.0312H14.243V14.9713H11.8046V10.0312Z" fill="#734AE8"/>
<path d="M9.38208 14.9717H11.8046V19.9279H9.38208V14.9717Z" fill="#734AE8"/>
<path d="M6.95959 19.9277H9.38209V24.884H6.95959V19.9277Z" fill="#734AE8"/>
<path d="M4.52112 24.8838H6.95956V29.84H4.52112V24.8838Z" fill="#734AE8"/>
<path d="M2.09863 29.8408H4.52113V34.7808H2.09863V29.8408Z" fill="#734AE8"/>
</g>
<defs>
<clipPath id="clip0_1494_6040">
<rect width="51" height="52" fill="white" transform="translate(0.879395 0.119141)"/>
</clipPath>
</defs>
</svg>
