<svg width="30" height="28" viewBox="0 0 30 28" fill="none" xmlns="http://www.w3.org/2000/svg">
<path d="M21.375 11.75L17.625 15.5L19.2 17.075L20.175 16.1C20.025 17.425 19.4625 18.531 18.4875 19.418C17.5125 20.305 16.35 20.749 15 20.75C14.65 20.75 14.325 20.7185 14.025 20.6555C13.725 20.5925 13.425 20.499 13.125 20.375L11.475 22.025C12 22.325 12.5565 22.5625 13.1445 22.7375C13.7325 22.9125 14.351 23 15 23C17 23 18.7065 22.325 20.1195 20.975C21.5325 19.625 22.301 17.975 22.425 16.025L23.55 17.075L25.125 15.5L21.375 11.75ZM8.625 19.25L12.375 15.5L10.8 13.925L9.825 14.9C9.975 13.575 10.5375 12.469 11.5125 11.582C12.4875 10.695 13.65 10.251 15 10.25C15.35 10.25 15.675 10.2815 15.975 10.3445C16.275 10.4075 16.575 10.501 16.875 10.625L18.525 8.975C18 8.675 17.4435 8.4375 16.8555 8.2625C16.2675 8.0875 15.649 8 15 8C13 8 11.2935 8.675 9.8805 10.025C8.4675 11.375 7.699 13.025 7.575 14.975L6.45 13.925L4.875 15.5L8.625 19.25ZM3 27.5C2.175 27.5 1.4685 27.206 0.880502 26.618C0.292502 26.03 -0.000997453 25.324 2.54669e-06 24.5V6.5C2.54669e-06 5.675 0.294003 4.9685 0.882003 4.3805C1.47 3.7925 2.176 3.499 3 3.5H7.725L10.5 0.5H19.5L22.275 3.5H27C27.825 3.5 28.5315 3.794 29.1195 4.382C29.7075 4.97 30.001 5.676 30 6.5V24.5C30 25.325 29.706 26.0315 29.118 26.6195C28.53 27.2075 27.824 27.501 27 27.5H3Z" fill="black"/>
</svg>
