<svg width="7" height="12" viewBox="0 0 7 12" fill="none" xmlns="http://www.w3.org/2000/svg">
<path d="M1.38709 0.237466L6.82257 5.55673C6.88709 5.62005 6.93289 5.68865 6.95999 5.76253C6.98709 5.83641 7.00042 5.91557 6.99999 6C6.99999 6.08443 6.98644 6.16359 6.95934 6.23747C6.93225 6.31135 6.88666 6.37995 6.82257 6.44327L1.3871 11.7784C1.23656 11.9261 1.04839 12 0.82258 12C0.596774 12 0.403226 11.9208 0.241936 11.7625C0.080646 11.6042 9.02928e-07 11.4195 8.84474e-07 11.2084C8.66021e-07 10.9974 0.0806459 10.8127 0.241936 10.6544L4.98386 6L0.241935 1.34565C0.0913978 1.19789 0.016129 1.01573 0.016129 0.799156C0.016129 0.582586 0.096774 0.395356 0.258064 0.237466C0.419354 0.0791555 0.607526 -3.94827e-07 0.822579 -4.13627e-07C1.03763 -4.32428e-07 1.2258 0.0791555 1.38709 0.237466Z" fill="#666666"/>
</svg>
