<svg xmlns="http://www.w3.org/2000/svg" width="25" height="25" viewBox="0 0 25 25" fill="none">
  <path d="M13.9775 7.19922L12.862 4.96813C12.5409 4.32602 12.3804 4.00495 12.1409 3.77038C11.9291 3.56295 11.6739 3.40519 11.3936 3.30853C11.0767 3.19922 10.7177 3.19922 9.99983 3.19922H6.17754C5.05743 3.19922 4.49738 3.19922 4.06956 3.41721C3.69323 3.60895 3.38727 3.91491 3.19553 4.29124C2.97754 4.71906 2.97754 5.27911 2.97754 6.39922V7.19922M2.97754 7.19922H18.1775C19.8577 7.19922 20.6978 7.19922 21.3395 7.5262C21.904 7.81382 22.3629 8.27276 22.6506 8.83725C22.9775 9.47898 22.9775 10.3191 22.9775 11.9992V16.3992C22.9775 18.0794 22.9775 18.9195 22.6506 19.5612C22.3629 20.1257 21.904 20.5846 21.3395 20.8722C20.6978 21.1992 19.8577 21.1992 18.1775 21.1992H7.77754C6.09738 21.1992 5.2573 21.1992 4.61557 20.8722C4.05108 20.5846 3.59214 20.1257 3.30452 19.5612C2.97754 18.9195 2.97754 18.0794 2.97754 16.3992V7.19922Z" stroke="#DFD9FF" stroke-width="2" stroke-linecap="round" stroke-linejoin="round"/>
</svg>