<svg width="21" height="25" viewBox="0 0 21 25" fill="none" xmlns="http://www.w3.org/2000/svg">
<path d="M4.00715 23.0309C4.00715 23.0309 4.59048 17.5934 8.67382 12.76M18.1588 2.78161L18.8518 10.2431C19.2882 14.9387 15.8885 19.1195 11.356 19.5714C6.90748 20.0149 2.87782 16.6472 2.44965 12.0399C2.2439 9.82734 2.89519 7.62078 4.26023 5.9056C5.62527 4.19042 7.59226 3.10711 9.72848 2.89398L17.3947 2.13032C17.4862 2.12115 17.5786 2.13076 17.6666 2.1586C17.7545 2.18643 17.8363 2.23195 17.9073 2.29255C17.9783 2.35315 18.037 2.42764 18.0802 2.51176C18.1233 2.59588 18.15 2.68678 18.1588 2.78161Z" stroke="#F1ECFF" stroke-width="3" stroke-linecap="round" stroke-linejoin="round"/>
</svg>
