<svg width="21" height="26" viewBox="0 0 21 26" fill="none" xmlns="http://www.w3.org/2000/svg">
<path d="M2.83337 24.9824C2.83337 24.9824 3.50003 18.9824 8.1667 13.6491M19.0067 2.63839L19.7987 10.8717C20.2974 16.0531 16.412 20.6664 11.232 21.1651C6.14803 21.6544 1.5427 17.9384 1.05337 12.8544C0.818226 10.413 1.56255 7.97817 3.1226 6.08556C4.68265 4.19295 6.93064 2.99757 9.37203 2.76239L18.1334 1.91973C18.238 1.90961 18.3436 1.92022 18.4441 1.95093C18.5446 1.98165 18.6381 2.03188 18.7192 2.09874C18.8003 2.16561 18.8675 2.2478 18.9168 2.34063C18.9661 2.43346 18.9967 2.53376 19.0067 2.63839Z" stroke="white" stroke-width="2" stroke-linecap="round" stroke-linejoin="round"/>
</svg>
