<svg width="33" height="43" viewBox="0 0 33 43" fill="none" xmlns="http://www.w3.org/2000/svg">
<path d="M17.8454 40.7726L17.1249 27.585L13.5697 26.3309L12.0999 41.2055L15.4548 38.0752L17.8454 40.7726Z" fill="#694AC2"/>
<path d="M26.9075 38.0889L20.4184 26.6092L22.6318 23.6472L31.7532 35.5442L27.4012 34.5376L26.9075 38.0889Z" fill="#694AC2"/>
<path d="M12.9575 4.34432L15.3512 6.89392L17.0043 3.81211L18.493 6.97662L21.0175 4.55648L21.4555 8.02614L24.6043 6.50458L23.9486 9.93975L27.4135 9.4657L25.7284 12.5301L29.1702 13.15L26.6206 15.5437L29.7024 17.1968L26.5379 18.6855L28.9581 21.2101L25.4884 21.648L27.01 24.7968L23.5748 24.1412L24.0488 27.6061L20.9844 25.9209L20.3645 29.3628L17.9708 26.8132L16.3177 29.895L14.829 26.7305L12.3045 29.1506L11.8665 25.6809L8.71771 27.2025L9.37339 23.7673L5.90848 24.2414L7.59359 21.1769L4.15178 20.5571L6.70138 18.1634L3.61957 16.5102L6.78408 15.0216L4.36394 12.497L7.8336 12.0591L6.31204 8.91025L9.74722 9.56593L9.27317 6.10102L12.3376 7.78613L12.9575 4.34432Z" fill="#EEE067"/>
<circle cx="16.2267" cy="16.9819" r="8.20985" transform="rotate(-16.4921 16.2267 16.9819)" fill="#F2E56C"/>
</svg>
