<svg width="25" height="25" viewBox="0 0 25 25" fill="none" xmlns="http://www.w3.org/2000/svg">
<path d="M20.6072 6.9549H19.591V5.94078H18.5766V4.92667H17.5625H16.5482V3.91255H15.5341H14.52V2.89844H13.5059H12.4854H11.4712V3.91255H10.4571H9.44301V4.92667H8.42868H7.41456V5.94078H6.40023V6.9549H5.38399H4.36987V7.96901V8.98313V9.99724V11.0114V12.0276V13.046V14.0601V15.0742V16.0883V17.1024V18.1168H5.38399H6.40023V19.1309H7.41456V20.1473H8.42868H9.44301V21.1615H10.4571H11.4712V22.1756H12.4854H13.5059H14.52V21.1615H15.5341H16.5482V20.1473H17.5625H18.5766V19.1309H19.591V18.1168H20.6072H21.6213V17.1024V16.0883V15.0742V14.0601V13.046V12.0276V11.0114V9.99724V8.98313V7.96901V6.9549H20.6072ZM12.4856 12.0276V11.0114H11.4715H10.4573V9.99724H9.44322V8.98313H8.42889H7.41478V7.96901V6.9549H8.42889V5.94078H9.44322H10.4573V4.92667H11.4715H12.4856V3.91255H13.5061V4.92667H14.5202H15.5343V5.94078H16.5484H17.5627V6.9549H18.5769V7.96901V8.98313H17.5627H16.5484V9.99724H15.5343V11.0114H14.5202H13.5061V12.0276H12.4856ZM20.6072 9.99724V11.0114V12.0276V13.046V14.0601V15.0742V16.0883V17.1024H19.591H18.5766V18.1168H17.5625V19.1309H16.5482H15.5341V20.1473H14.52H13.5059V19.1309V18.1168V17.1024V16.0883V15.0742V14.0601V13.046H14.52V12.0276H15.5341H16.5482V11.0114H17.5625V9.99724H18.5766H19.591V8.98313H20.6072V9.99724Z" fill="white"/>
</svg>
