<svg width="24" height="25" viewBox="0 0 24 25" fill="none" xmlns="http://www.w3.org/2000/svg">
<g id="Icon">
<path id="Icons / Navigation / more_horizontal" fill-rule="evenodd" clip-rule="evenodd" d="M5.5 10.3203C6.32843 10.3203 7 10.9919 7 11.8203C7 12.6487 6.32843 13.3203 5.5 13.3203C4.67157 13.3203 4 12.6487 4 11.8203C4 10.9919 4.67157 10.3203 5.5 10.3203ZM11.5 10.3203C12.3284 10.3203 13 10.9919 13 11.8203C13 12.6487 12.3284 13.3203 11.5 13.3203C10.6716 13.3203 10 12.6487 10 11.8203C10 10.9919 10.6716 10.3203 11.5 10.3203ZM19 11.8203C19 10.9919 18.3284 10.3203 17.5 10.3203C16.6716 10.3203 16 10.9919 16 11.8203C16 12.6487 16.6716 13.3203 17.5 13.3203C18.3284 13.3203 19 12.6487 19 11.8203Z" fill="#DDDDE4"/>
</g>
</svg>
