<svg width="56" height="53" viewBox="0 0 56 53" fill="none" xmlns="http://www.w3.org/2000/svg">
<path d="M53.4858 3.95687C50.9817 2.30681 48.4864 0.776901 45.5815 0.538621C41.9539 0.241067 39.0017 2.31304 36.2901 5.43217C33.5785 8.55131 34.7291 17.6725 37.5904 21.8759C40.4518 26.0794 46.9549 23.9498 47.8542 16.1277C48.2617 12.5835 50.9289 10.9147 50.9289 10.9147C50.9289 10.9147 58.2888 7.12173 53.4858 3.95687Z" fill="#332E43"/>
<path d="M4.49249 31.0229C4.13472 28.4373 3.86803 25.9035 4.76956 23.5321C5.89537 20.5708 8.62958 19.0281 12.0963 18.0668C15.563 17.1056 22.2973 21.4281 24.5272 25.2513C26.757 29.0746 22.6467 33.3854 16.1646 31.1602C13.2275 30.152 10.9169 31.6219 10.9169 31.6219C10.9169 31.6219 5.17871 35.9823 4.49249 31.0229Z" fill="#332E43"/>
<path d="M49.2289 26.2052C44.8834 17.2328 39.1276 17.0711 30.7565 18.9903C22.3855 20.9094 16.7969 24.9469 17.2002 33.0261L17.1036 33.0483L17.5592 35.0354L18.2749 38.1573L18.2808 38.1828L18.2866 38.2083L18.492 39.1041L18.5185 39.098C20.9302 47.3915 29.5359 52.4374 38.1949 50.4523C46.854 48.4671 50.6907 39.1482 50.6657 35.3683C50.6406 31.5885 49.2289 26.2052 49.2289 26.2052Z" fill="white"/>
<path d="M49.2289 26.2052C44.8834 17.2328 39.1276 17.0711 30.7565 18.9903C22.3855 20.9094 16.7969 24.9469 17.2002 33.0261L17.1036 33.0483L17.5592 35.0354L18.2749 38.1573L18.2808 38.1828L18.2866 38.2083L18.492 39.1041L18.5185 39.098C20.9302 47.3915 29.5359 52.4374 38.1949 50.4523C46.854 48.4671 50.6907 39.1482 50.6657 35.3683C50.6406 31.5885 49.2289 26.2052 49.2289 26.2052Z" stroke="black"/>
<path fill-rule="evenodd" clip-rule="evenodd" d="M33.5872 18.488C33.0049 20.3455 34.3934 31.0585 37.9426 34.1238C39.1717 35.1853 40.137 36.1089 40.9698 36.9055C43.1428 38.9844 44.4129 40.1995 47.1111 40.7494C47.8613 40.9023 48.6303 40.7993 49.3608 40.5339C50.251 38.5138 50.6739 36.6318 50.6656 35.3685C50.6406 31.5887 49.2289 26.2054 49.2289 26.2054C45.3946 18.2887 40.4625 17.2313 33.6047 18.4104L33.5872 18.488Z" fill="#332E43"/>
<path fill-rule="evenodd" clip-rule="evenodd" d="M25.7542 20.7393C27.076 22.1602 32.0151 31.0547 30.1882 35.3525C29.5556 36.8409 29.0976 38.0908 28.7025 39.1689C27.6715 41.9823 27.0689 43.6268 24.909 45.2904C24.1693 45.8602 23.3325 46.0142 22.51 45.9117C20.6833 44.0512 19.2866 41.739 18.5183 39.0971L18.4919 39.1032L18.2865 38.2074L18.2806 38.1819L18.2748 38.1564L17.5591 35.0346L17.2 33.0253C16.886 26.7328 20.2064 22.8921 25.6452 20.5944L25.7542 20.7393Z" fill="#332E43"/>
<path d="M35.918 34.7195C36.0528 35.3076 35.4835 36.5138 34.4923 36.741C33.5011 36.9682 32.4932 36.2607 32.3285 35.5424C32.1931 34.9519 31.978 34.0137 33.7727 33.6022C35.5675 33.1908 35.7831 34.1315 35.918 34.7195Z" fill="black"/>
<path d="M37.6147 37.7697C36.3032 39.726 33.9947 40.3077 32.13 39.0271" stroke="black" stroke-linecap="round"/>
<path d="M29.5227 32.7541C28.1144 31.93 26.4993 32.2639 25.7231 33.6252" stroke="white" stroke-linecap="round"/>
<path d="M41.0285 30.1164C39.6203 29.2923 38.0052 29.6262 37.2289 30.9875" stroke="white" stroke-linecap="round"/>
<circle cx="25.3595" cy="33.3422" r="6.10803" transform="rotate(-12.9124 25.3595 33.3422)" stroke="#694AC2"/>
<circle cx="41.0157" cy="29.7524" r="6.10803" transform="rotate(-12.9124 41.0157 29.7524)" stroke="#694AC2"/>
<path d="M31.707 32.1406L34.717 31.4884" stroke="#7B60C9" stroke-linecap="round"/>
</svg>
