<svg width="36" height="36" viewBox="0 0 36 36" fill="none" xmlns="http://www.w3.org/2000/svg">
<path d="M11.25 10.125C13.114 10.125 14.625 8.61396 14.625 6.75C14.625 4.88604 13.114 3.375 11.25 3.375C9.38604 3.375 7.875 4.88604 7.875 6.75C7.875 8.61396 9.38604 10.125 11.25 10.125Z" stroke="white" stroke-width="2.25" stroke-linecap="round" stroke-linejoin="round"/>
<path d="M11.25 32.625C13.114 32.625 14.625 31.114 14.625 29.25C14.625 27.386 13.114 25.875 11.25 25.875C9.38604 25.875 7.875 27.386 7.875 29.25C7.875 31.114 9.38604 32.625 11.25 32.625Z" stroke="white" stroke-width="2.25" stroke-linecap="round" stroke-linejoin="round"/>
<path d="M11.25 25.875V10.125" stroke="white" stroke-width="2.25" stroke-linecap="round" stroke-linejoin="round"/>
<path d="M24.75 14.625C26.614 14.625 28.125 13.114 28.125 11.25C28.125 9.38604 26.614 7.875 24.75 7.875C22.886 7.875 21.375 9.38604 21.375 11.25C21.375 13.114 22.886 14.625 24.75 14.625Z" stroke="white" stroke-width="2.25" stroke-linecap="round" stroke-linejoin="round"/>
<path d="M24.75 14.625C24.75 23.625 11.25 18 11.25 25.875" stroke="white" stroke-width="2.25" stroke-linecap="round" stroke-linejoin="round"/>
</svg>
