<svg width="15" height="14" viewBox="0 0 15 14" fill="none" xmlns="http://www.w3.org/2000/svg">
<path d="M13.7685 0.709727C13.3785 0.319727 12.7485 0.319727 12.3585 0.709727L7.46848 5.58973L2.57848 0.699727C2.18848 0.309727 1.55848 0.309727 1.16848 0.699727C0.778477 1.08973 0.778477 1.71973 1.16848 2.10973L6.05848 6.99973L1.16848 11.8897C0.778477 12.2797 0.778477 12.9097 1.16848 13.2997C1.55848 13.6897 2.18848 13.6897 2.57848 13.2997L7.46848 8.40973L12.3585 13.2997C12.7485 13.6897 13.3785 13.6897 13.7685 13.2997C14.1585 12.9097 14.1585 12.2797 13.7685 11.8897L8.87848 6.99973L13.7685 2.10973C14.1485 1.72973 14.1485 1.08973 13.7685 0.709727Z" fill="#C5C6D0"/>
</svg>
