<svg xmlns="http://www.w3.org/2000/svg" width="20" height="20" viewBox="0 0 20 20" fill="none">
  <path d="M9.99967 14.1667C9.54134 14.1667 9.16634 13.7917 9.16634 13.3333L9.16634 10C9.16634 9.54168 9.54134 9.16668 9.99967 9.16668C10.458 9.16668 10.833 9.54168 10.833 10L10.833 13.3333C10.833 13.7917 10.458 14.1667 9.99967 14.1667ZM10.008 18.3333C14.608 18.3333 18.333 14.6 18.333 10C18.333 5.40001 14.608 1.66668 10.008 1.66668C5.39967 1.66668 1.66634 5.40001 1.66634 10C1.66634 14.6 5.39967 18.3333 10.008 18.3333ZM9.99967 3.33334C13.683 3.33334 16.6663 6.31668 16.6663 10C16.6663 13.6833 13.683 16.6667 9.99967 16.6667C6.31634 16.6667 3.33301 13.6833 3.33301 10C3.33301 6.31668 6.31634 3.33334 9.99967 3.33334ZM9.16634 6.66668C9.16634 6.20644 9.53944 5.83334 9.99967 5.83334C10.4599 5.83334 10.833 6.20644 10.833 6.66668C10.833 7.12691 10.4599 7.50001 9.99967 7.50001C9.53944 7.50001 9.16634 7.12691 9.16634 6.66668Z" fill="#CAC0FF"/>
</svg>