<svg width="48" height="47" viewBox="0 0 48 47" fill="none" xmlns="http://www.w3.org/2000/svg">
<path d="M9.92914 29.2103C9.20964 29.4431 7.49817 30.5285 6.40825 33.0081C5.31834 35.4876 2.93575 34.9267 1.88069 34.3362" stroke="#F2E56C" stroke-width="3"/>
<rect x="11.3633" y="24.7139" width="26.0731" height="15.308" rx="4" transform="rotate(-10.7 11.3633 24.7139)" fill="#694AC2"/>
<rect x="11.3633" y="24.7139" width="26.0731" height="15.308" rx="4" transform="rotate(-10.7 11.3633 24.7139)" fill="black" fill-opacity="0.2"/>
<path d="M21.7021 13.623C22.1711 13.3015 22.7547 13.1948 23.3071 13.3296L42.8382 18.0957C44.5074 18.503 44.9199 20.6865 43.5145 21.6747L27.069 33.2387C26.6039 33.5657 26.0215 33.6794 25.4676 33.5511L5.35351 28.8952C3.65776 28.5026 3.23803 26.2813 4.67365 25.2971L21.7021 13.623Z" fill="#694AC2"/>
</svg>
