<svg width="32" height="49" viewBox="0 0 32 49" fill="none" xmlns="http://www.w3.org/2000/svg">
<path d="M5.75787 18.8392C4.80267 16.8472 5.64312 14.4581 7.63507 13.5029L12.5803 11.1315C14.5723 10.1763 16.9614 11.0167 17.9166 13.0087L30.6379 39.5372C31.3543 41.0312 30.724 42.823 29.23 43.5394L22.4814 46.7756C20.9874 47.492 19.1956 46.8617 18.4791 45.3677L5.75787 18.8392Z" fill="#694AC2"/>
<line y1="-0.5" x2="36.2018" y2="-0.5" transform="matrix(0.429153 0.903232 -0.900123 0.435636 7.31299 13.6406)" stroke="#895ED0"/>
<line y1="-0.5" x2="36.2018" y2="-0.5" transform="matrix(0.429153 0.903232 -0.900123 0.435636 11.6797 11.7725)" stroke="#895ED0"/>
<path d="M5.46879 4.08702L6.67544 3.78918L17.1672 11.6431L5.07637 16.99L5.46879 4.08702Z" fill="white"/>
<path d="M5.28652 4.50653C5.27232 4.20553 5.40565 3.91649 5.64383 3.7319C5.98792 3.46524 6.4714 3.47463 6.80488 3.75445L8.34214 5.04436L5.38505 6.59559L5.28652 4.50653Z" fill="#694AC2"/>
</svg>
