<svg width="35" height="41" viewBox="0 0 35 41" fill="none" xmlns="http://www.w3.org/2000/svg">
<path d="M24.7872 27.4055C25.8327 27.4994 27.2099 28.6942 27.743 29.7839C25.8648 30.0556 24.2499 29.793 24.0749 29.4544L24.7872 27.4055Z" fill="#F2E56C" stroke="#F2E56C" stroke-width="3"/>
<path d="M2.19093 12.6465C1.76183 8.55552 4.50505 4.80588 8.53398 3.97635L16.0166 2.43572C20.6489 1.48198 25.0929 4.73323 25.5863 9.43683L26.953 22.4673C27.3821 26.5583 24.6389 30.308 20.61 31.1375L13.1273 32.6781C8.49511 33.6319 4.05104 30.3806 3.55768 25.677L2.19093 12.6465Z" fill="#694AC2"/>
<path d="M4.19511 15.9093C3.83183 11.906 6.49573 8.25468 10.4189 7.37864L19.5686 5.33556C21.5268 4.89831 23.578 5.22704 25.3015 6.2543C27.5253 7.57977 28.953 9.91597 29.1183 12.4995L30.0494 27.0586C30.2775 30.6252 28.1123 33.9105 24.7448 35.1073L17.0234 37.8515C13.9153 38.9562 10.4479 38.0399 8.29122 35.5441L7.38697 34.4976C6.29342 33.2321 5.62401 31.6557 5.47286 29.99L4.19511 15.9093Z" fill="white"/>
<path d="M8.06699 18.5381C7.63711 14.4396 10.3909 10.6852 14.4292 9.86399L22.5265 8.21743C27.1534 7.27655 31.5844 10.5266 32.077 15.2225L33.4465 28.2789C33.8763 32.3773 31.1225 36.1318 27.0843 36.953L18.987 38.5995C14.3601 39.5404 9.92901 36.2904 9.43647 31.5945L8.06699 18.5381Z" fill="#694AC2"/>
<path d="M10.2948 17.8074C8.12101 18.4332 3.78379 19.6483 1.86572 13.7549" stroke="#D5D4D1" stroke-width="2" stroke-linecap="round"/>
<path d="M10.9823 24.825C8.80851 25.4508 4.47129 26.6659 2.55322 20.7725" stroke="#D5D4D1" stroke-width="2" stroke-linecap="round"/>
<path d="M11.7777 31.2518C9.60392 31.8775 5.2667 33.0927 3.34863 27.1992" stroke="#D5D4D1" stroke-width="2" stroke-linecap="round"/>
</svg>
