<svg width="18" height="22" viewBox="0 0 18 22" fill="none" xmlns="http://www.w3.org/2000/svg">
<path d="M15.032 11.6111C15.0626 14.8799 17.9189 15.9677 17.9506 15.9816C17.9264 16.0583 17.4942 17.5317 16.4457 19.0537C15.5394 20.3695 14.5987 21.6805 13.1168 21.7077C11.6608 21.7343 11.1926 20.85 9.5279 20.85C7.86371 20.85 7.34352 21.6805 5.9652 21.7343C4.53484 21.7881 3.44564 20.3114 2.53176 19.0004C0.664343 16.3187 -0.762749 11.4226 1.15347 8.1176C2.10541 6.47633 3.8066 5.43702 5.65309 5.41036C7.05766 5.38375 8.38341 6.34898 9.24204 6.34898C10.1001 6.34898 11.7112 5.18821 13.4048 5.35868C14.1139 5.38799 16.1041 5.64317 17.3821 7.50127C17.2791 7.56468 15.0073 8.87834 15.032 11.6111V11.6111ZM12.2955 3.58451C13.0549 2.67146 13.566 1.40042 13.4266 0.135742C12.332 0.17944 11.0084 0.860262 10.2233 1.7728C9.51963 2.5809 8.90341 3.87431 9.06967 5.11396C10.2897 5.20772 11.5361 4.49813 12.2955 3.58451" fill="white"/>
</svg>
