<svg width="25" height="25" viewBox="0 0 25 25" fill="none" xmlns="http://www.w3.org/2000/svg">
<g id="share-07">
<path id="Icon" d="M8.91593 13.6116L15.7459 17.5916M15.7359 6.61156L8.91593 10.5916M21.3259 5.10156C21.3259 6.75842 19.9828 8.10156 18.3259 8.10156C16.6691 8.10156 15.3259 6.75842 15.3259 5.10156C15.3259 3.44471 16.6691 2.10156 18.3259 2.10156C19.9828 2.10156 21.3259 3.44471 21.3259 5.10156ZM9.32593 12.1016C9.32593 13.7584 7.98278 15.1016 6.32593 15.1016C4.66907 15.1016 3.32593 13.7584 3.32593 12.1016C3.32593 10.4447 4.66907 9.10156 6.32593 9.10156C7.98278 9.10156 9.32593 10.4447 9.32593 12.1016ZM21.3259 19.1016C21.3259 20.7584 19.9828 22.1016 18.3259 22.1016C16.6691 22.1016 15.3259 20.7584 15.3259 19.1016C15.3259 17.4447 16.6691 16.1016 18.3259 16.1016C19.9828 16.1016 21.3259 17.4447 21.3259 19.1016Z" stroke="#46D8EC" stroke-linecap="round" stroke-linejoin="round"/>
</g>
</svg>
