<svg width="12" height="20" viewBox="0 0 12 20" fill="none" xmlns="http://www.w3.org/2000/svg">
<path d="M9.16558 19.1004L0.740576 10.7004C0.640576 10.6004 0.569909 10.4921 0.528576 10.3754C0.486576 10.2587 0.465576 10.1337 0.465576 10.0004C0.465576 9.86706 0.486576 9.74206 0.528576 9.62539C0.569909 9.50872 0.640576 9.40039 0.740576 9.30039L9.16558 0.875391C9.39891 0.642057 9.69058 0.525391 10.0406 0.525391C10.3906 0.525391 10.6906 0.650391 10.9406 0.900391C11.1906 1.15039 11.3156 1.44206 11.3156 1.77539C11.3156 2.10872 11.1906 2.40039 10.9406 2.65039L3.59058 10.0004L10.9406 17.3504C11.1739 17.5837 11.2906 17.8711 11.2906 18.2124C11.2906 18.5544 11.1656 18.8504 10.9156 19.1004C10.6656 19.3504 10.3739 19.4754 10.0406 19.4754C9.70724 19.4754 9.41558 19.3504 9.16558 19.1004Z" fill="#C5C6D0"/>
</svg>
