<svg width="53" height="53" viewBox="0 0 53 53" fill="none" xmlns="http://www.w3.org/2000/svg">
<g clip-path="url(#clip0_1494_6023)">
<path d="M50.4094 44.6929H40.5131V2.58914H50.4094V0.119141H8.32189V2.58914H38.0269V14.9716H30.6006V17.4579H38.0269V24.8841H35.5569V27.3541H30.6006V24.8841H28.1306V27.3541H20.7044V22.4141H18.2181V27.3541H5.83564V22.4141H3.36564V27.3541H0.879395V44.6929H3.36564V29.8404H25.6444V44.6929H3.36564V47.1629H5.83564V52.1191H8.32189V47.1629H38.0269V52.1191H40.5131V47.1629H50.4094V52.1191H52.8794V2.58914H50.4094V44.6929Z" fill="#734AE8"/>
<path d="M18.2181 7.54492H28.1306V10.0312H18.2181V7.54492Z" fill="#734AE8"/>
<path d="M10.7919 34.7803H18.2182V37.2665H10.7919V34.7803Z" fill="#734AE8"/>
<path d="M5.83563 2.58887H8.32188V12.5014H5.83563V2.58887Z" fill="#734AE8"/>
<path d="M15.7481 17.4579V22.4142H18.2181V19.9279H25.6444V24.8842H28.1306V22.4142H33.0706V24.8842H35.5569V19.9279H28.1306V17.4579H18.2181V14.9717H0.879395V22.4142H3.36564V17.4579H15.7481Z" fill="#734AE8"/>
</g>
<defs>
<clipPath id="clip0_1494_6023">
<rect width="52" height="52" fill="white" transform="translate(0.879395 0.119141)"/>
</clipPath>
</defs>
</svg>
