<svg width="56" height="57" viewBox="0 0 56 57" fill="none" xmlns="http://www.w3.org/2000/svg">
<g clip-path="url(#clip0_1949_5193)">
<path d="M53.3223 16.6921H55.9998V19.3521H53.3223V16.6921Z" fill="#6E5FED"/>
<path d="M53.3223 8.67725H55.9998V11.3547H53.3223V8.67725Z" fill="#6E5FED"/>
<path d="M53.3223 0.679688H55.9998V3.35719H53.3223V0.679688Z" fill="#6E5FED"/>
<path d="M50.6621 24.6897H53.3221V27.3497H50.6621V24.6897Z" fill="#6E5FED"/>
<path d="M50.6621 11.3547H53.3221V14.0147H50.6621V11.3547Z" fill="#6E5FED"/>
<path d="M50.6621 3.35718H53.3221V6.01718H50.6621V3.35718Z" fill="#6E5FED"/>
<path d="M48.0029 27.3496H50.6629V30.0271H48.0029V27.3496Z" fill="#6E5FED"/>
<path d="M48.0029 14.0146H50.6629V16.6921H48.0029V14.0146Z" fill="#6E5FED"/>
<path d="M48.0029 6.01709H50.6629V8.67709H48.0029V6.01709Z" fill="#6E5FED"/>
<path d="M45.3252 30.0271H48.0027V35.3471H45.3252V30.0271Z" fill="#6E5FED"/>
<path d="M45.3252 19.3523H48.0027V22.0123H45.3252V19.3523Z" fill="#6E5FED"/>
<path d="M45.3252 8.67725H48.0027V11.3547H45.3252V8.67725Z" fill="#6E5FED"/>
<path d="M45.3252 0.679688H48.0027V3.35719H45.3252V0.679688Z" fill="#6E5FED"/>
<path d="M42.665 35.3472H45.325V40.6847H42.665V35.3472Z" fill="#6E5FED"/>
<path d="M42.665 22.0122H45.325V24.6897H42.665V22.0122Z" fill="#6E5FED"/>
<path d="M42.665 11.3547H45.325V14.0147H42.665V11.3547Z" fill="#6E5FED"/>
<path d="M42.665 3.35718H45.325V6.01718H42.665V3.35718Z" fill="#6E5FED"/>
<path d="M39.9873 40.6846H42.6648V46.0221H39.9873V40.6846Z" fill="#6E5FED"/>
<path d="M39.9873 6.01709H42.6648V8.67709H39.9873V6.01709Z" fill="#6E5FED"/>
<path d="M37.3271 27.3496H39.9871V30.0271H37.3271V27.3496Z" fill="#6E5FED"/>
<path d="M37.3271 16.6921H39.9871V19.3521H37.3271V16.6921Z" fill="#6E5FED"/>
<path d="M37.3271 0.679688H39.9871V3.35719H37.3271V0.679688Z" fill="#6E5FED"/>
<path d="M34.668 46.0222H39.988V48.6822H34.668V46.0222Z" fill="#6E5FED"/>
<path d="M34.668 8.67725H37.328V11.3547H34.668V8.67725Z" fill="#6E5FED"/>
<path d="M34.668 3.35718H37.328V6.01718H34.668V3.35718Z" fill="#6E5FED"/>
<path d="M31.9902 48.6821H34.6677V51.3596H31.9902V48.6821Z" fill="#6E5FED"/>
<path d="M31.9902 22.0122H34.6677V24.6897H31.9902V22.0122Z" fill="#6E5FED"/>
<path d="M29.3301 14.0146H31.9901V16.6921H29.3301V14.0146Z" fill="#6E5FED"/>
<path d="M29.3301 3.35718H31.9901V6.01718H29.3301V3.35718Z" fill="#6E5FED"/>
<path d="M26.6699 51.3596H31.9899V54.0196H26.6699V51.3596Z" fill="#6E5FED"/>
<path d="M26.6699 16.6921H29.3299V19.3521H26.6699V16.6921Z" fill="#6E5FED"/>
<path d="M23.9922 6.01709H29.3297V8.67709H23.9922V6.01709Z" fill="#6E5FED"/>
<path d="M15.9951 54.0198H26.6701V56.6798H15.9951V54.0198Z" fill="#6E5FED"/>
<path d="M21.332 8.67725H23.992V11.3547H21.332V8.67725Z" fill="#6E5FED"/>
<path d="M15.9951 11.3547H21.3326V14.0147H15.9951V11.3547Z" fill="#6E5FED"/>
<path d="M26.6696 48.6822V46.0222H29.3296V43.3447H31.9896V40.6847H34.6671V30.0272H31.9896V27.3497H29.3296V24.6897H26.6696V22.0122H15.9946V24.6897H13.3346V27.3497H10.6571V30.0272H7.99707V40.6847H10.6571V43.3447H13.3346V46.0222H15.9946V48.6822H26.6696ZM21.3321 27.3497H26.6696V30.0272H29.3296V32.6872H31.9896V38.0247H29.3296V32.6872H26.6696V30.0272H21.3321V27.3497Z" fill="#6E5FED"/>
<path d="M7.99707 51.3596H15.9946V54.0196H7.99707V51.3596Z" fill="#6E5FED"/>
<path d="M10.6572 14.0146H15.9947V16.6921H10.6572V14.0146Z" fill="#6E5FED"/>
<path d="M7.99707 16.6921H10.6571V19.3521H7.99707V16.6921Z" fill="#6E5FED"/>
<path d="M5.33789 48.6821H7.99789V51.3596H5.33789V48.6821Z" fill="#6E5FED"/>
<path d="M5.33789 19.3523H7.99789V22.0123H5.33789V19.3523Z" fill="#6E5FED"/>
<path d="M2.66016 43.3447H5.33766V48.6822H2.66016V43.3447Z" fill="#6E5FED"/>
<path d="M2.66016 22.0122H5.33766V27.3497H2.66016V22.0122Z" fill="#6E5FED"/>
<path d="M0 27.3496H2.66V43.3446H0V27.3496Z" fill="#6E5FED"/>
</g>
<defs>
<clipPath id="clip0_1949_5193">
<rect width="56" height="56" fill="white" transform="translate(0 0.679688)"/>
</clipPath>
</defs>
</svg>
