<svg width="27" height="28" viewBox="0 0 27 28" fill="none" xmlns="http://www.w3.org/2000/svg">
<path d="M25.6805 1.13379L24.3472 2.46712M1.68054 1.13379L3.01388 2.46712M25.6805 19.8005L24.3472 18.4671M1.68054 19.8005L3.01388 18.4671M9.68054 22.4671H17.6805M11.0139 26.4671H16.3472M13.6805 2.46712C8.34721 2.46712 5.61654 5.06712 5.68054 9.13379C5.71121 11.1165 6.34721 12.4671 7.68054 13.8005C9.01388 15.1338 9.68054 15.8005 9.68054 18.4671H17.6805C17.6805 15.8005 18.3472 15.1338 19.6805 13.8005C21.0139 12.4671 21.6499 11.1165 21.6805 9.13379C21.7445 5.06712 19.0139 2.46712 13.6805 2.46712Z" stroke="white" stroke-width="2" stroke-linecap="round" stroke-linejoin="round"/>
</svg>
