<svg width="25" height="24" viewBox="0 0 25 24" fill="none" xmlns="http://www.w3.org/2000/svg">
<g id="eye">
<g id="Icon">
<path d="M2.74044 12.7132C2.60425 12.4975 2.53615 12.3897 2.49804 12.2234C2.4694 12.0985 2.4694 11.9015 2.49804 11.7766C2.53615 11.6103 2.60425 11.5025 2.74043 11.2868C3.86584 9.50484 7.21571 5 12.3207 5C17.4257 5 20.7756 9.50484 21.901 11.2868C22.0372 11.5025 22.1053 11.6103 22.1434 11.7766C22.172 11.9015 22.172 12.0985 22.1434 12.2234C22.1053 12.3897 22.0372 12.4975 21.901 12.7132C20.7756 14.4952 17.4257 19 12.3207 19C7.21571 19 3.86584 14.4952 2.74044 12.7132Z" stroke="#C5C6D0" stroke-width="1.5" stroke-linecap="round" stroke-linejoin="round"/>
<path d="M12.3207 15C13.9776 15 15.3207 13.6569 15.3207 12C15.3207 10.3431 13.9776 9 12.3207 9C10.6639 9 9.32072 10.3431 9.32072 12C9.32072 13.6569 10.6639 15 12.3207 15Z" stroke="#C5C6D0" stroke-width="1.5" stroke-linecap="round" stroke-linejoin="round"/>
</g>
</g>
</svg>
