<svg width="26" height="26" viewBox="0 0 26 26" fill="none" xmlns="http://www.w3.org/2000/svg">
<path d="M23.8406 1.99902L22.6322 3.16569M2.09058 1.99902L3.29891 3.16569M23.8406 18.3324L22.6322 17.1657M2.09058 18.3324L3.29891 17.1657M9.34058 20.6657H16.5906M10.5489 24.1657H15.3822M12.9656 3.16569C8.13224 3.16569 5.65758 5.44069 5.71558 8.99902C5.74337 10.7339 6.31974 11.9157 7.52808 13.0824C8.73641 14.249 9.34058 14.8324 9.34058 17.1657H16.5906C16.5906 14.8324 17.1947 14.249 18.4031 13.0824C19.6114 11.9157 20.1878 10.7339 20.2156 8.99902C20.2736 5.44069 17.7989 3.16569 12.9656 3.16569Z" stroke="#F1ECFF" stroke-width="3" stroke-linecap="round" stroke-linejoin="round"/>
</svg>
