<svg width="29" height="29" viewBox="0 0 29 29" fill="none" xmlns="http://www.w3.org/2000/svg">
<path d="M14.4686 26.5837V16.917M14.4686 16.917V12.0837M14.4686 16.917L19.3019 14.5003M20.5103 8.45866C20.5103 6.85631 19.8737 5.31959 18.7407 4.18656C17.6077 3.05352 16.0709 2.41699 14.4686 2.41699C12.8662 2.41699 11.3295 3.05352 10.1965 4.18656C9.06345 5.31959 8.42692 6.85631 8.42692 8.45866M10.8436 8.45866H9.03109C7.2685 8.45866 5.57811 9.15884 4.33177 10.4052C3.08544 11.6515 2.38525 13.3419 2.38525 15.1045C2.38525 16.8671 3.08544 18.5575 4.33177 19.8038C5.57811 21.0501 7.2685 21.7503 9.03109 21.7503H14.4686H19.9061C21.6181 21.753 23.2652 21.0949 24.5039 19.9131C25.7427 18.7314 26.4776 17.1171 26.5555 15.4069C26.6334 13.6966 26.0482 12.0223 24.922 10.7328C23.7958 9.44331 22.2154 8.63819 20.5103 8.48524" stroke="#F1ECFF" stroke-width="3" stroke-linecap="round" stroke-linejoin="round"/>
</svg>
