<svg width="24" height="24" viewBox="0 0 24 24" fill="none" xmlns="http://www.w3.org/2000/svg">
<g id="material-symbols-light:hdr-auto-outline" clip-path="url(#clip0_3103_8097)">
<path id="Vector" d="M6.17333 18.2053H7.528L8.91333 14.42H15.0867L16.472 18.2053H17.8253L12.72 4.46133H11.3867L6.17333 18.2053ZM9.33867 13.2613L11.984 6.22133H12.1173L14.6613 13.2613H9.33867ZM12.0053 24C10.3458 24 8.78578 23.6853 7.32533 23.056C5.864 22.4258 4.59289 21.5707 3.512 20.4907C2.43111 19.4116 1.57556 18.1422 0.945333 16.6827C0.315111 15.2231 0 13.6636 0 12.004C0 10.3453 0.314667 8.78533 0.944 7.324C1.57422 5.86356 2.42933 4.59289 3.50933 3.512C4.58844 2.43111 5.85778 1.57556 7.31733 0.945333C8.77689 0.315111 10.3364 0 11.996 0C13.6547 0 15.2147 0.314667 16.676 0.944C18.1364 1.57422 19.4071 2.42933 20.488 3.50933C21.5689 4.58844 22.4244 5.85778 23.0547 7.31733C23.6849 8.77689 24 10.3364 24 11.996C24 13.6547 23.6853 15.2147 23.056 16.676C22.4258 18.1364 21.5707 19.4071 20.4907 20.488C19.4116 21.5689 18.1422 22.4244 16.6827 23.0547C15.2231 23.6849 13.6649 24 12.0053 24ZM12 22.6667C14.9556 22.6667 17.4724 21.628 19.5507 19.5507C21.6289 17.4733 22.6676 14.9564 22.6667 12C22.6667 9.04445 21.628 6.52756 19.5507 4.44933C17.4733 2.37111 14.9564 1.33244 12 1.33333C9.04445 1.33333 6.52756 2.372 4.44933 4.44933C2.37111 6.52667 1.33244 9.04356 1.33333 12C1.33333 14.9556 2.372 17.4724 4.44933 19.5507C6.52667 21.6289 9.04356 22.6676 12 22.6667Z" fill="#DFD9FF"/>
</g>
<defs>
<clipPath id="clip0_3103_8097">
<rect width="24" height="24" fill="white"/>
</clipPath>
</defs>
</svg>
