<svg width="24" height="24" viewBox="0 0 24 24" fill="none" xmlns="http://www.w3.org/2000/svg">
<path fill-rule="evenodd" clip-rule="evenodd" d="M10.1255 3C9.616 3 9.18793 3.38313 9.13166 3.88957L8.79539 6.91596L6.00629 5.69396C5.53957 5.48948 4.99373 5.66862 4.73896 6.1099L3.134 8.88977C2.87922 9.33105 2.997 9.89334 3.40745 10.1953L5.86044 11.9998L3.40744 13.8044C2.997 14.1063 2.87922 14.6686 3.134 15.1099L4.73895 17.8898C4.99373 18.3311 5.53956 18.5102 6.00628 18.3057L8.79536 17.0837L9.13166 20.1104C9.18793 20.6169 9.616 21 10.1255 21H13.3355C13.845 21 14.2731 20.6169 14.3293 20.1104L14.6657 17.0836L17.4551 18.3057C17.9218 18.5102 18.4677 18.3311 18.7225 17.8898L20.3274 15.1099C20.5822 14.6686 20.4644 14.1063 20.054 13.8044L17.601 11.9998L20.054 10.1953C20.4644 9.89334 20.5822 9.33106 20.3274 8.88977L18.7225 6.10991C18.4677 5.66862 17.9218 5.48948 17.4551 5.69396L14.6656 6.91613L14.3293 3.88957C14.2731 3.38314 13.845 3 13.3355 3H10.1255ZM11.7305 15C13.3873 15 14.7305 13.6569 14.7305 12C14.7305 10.3431 13.3873 9 11.7305 9C10.0736 9 8.73047 10.3431 8.73047 12C8.73047 13.6569 10.0736 15 11.7305 15Z" fill="#45464F"/>
</svg>
