<svg width="52" height="53" viewBox="0 0 52 53" fill="none" xmlns="http://www.w3.org/2000/svg">
<g clip-path="url(#clip0_1719_2299)">
<path d="M45.4437 49.6313V29.8225H50.2887V5.05754H45.4437V2.57129H43.0053V49.6313H45.4437ZM45.4437 7.52754H47.8662V12.4838H45.4437V7.52754ZM45.4437 14.9538H47.8662V19.91H45.4437V14.9538ZM45.4437 22.3963H47.8662V27.3363H45.4437V22.3963Z" fill="#CBBDF3"/>
<path d="M6.58015 49.6318H42.9973V52.1018H6.58015V49.6318Z" fill="#CBBDF3"/>
<path d="M35.7139 39.7188H38.1523V42.205H35.7139V39.7188Z" fill="#CBBDF3"/>
<path d="M30.853 44.6758H38.1523V47.1458H30.853V44.6758Z" fill="#CBBDF3"/>
<path d="M35.7219 27.3362V24.8662H38.1603V12.4837H35.7219V10.0137H16.2781V12.4837H13.8636V24.8662H16.2781V27.3362H35.7219ZM18.7245 14.9537H33.2914V17.4399H18.7245V14.9537ZM18.7245 19.9099H33.2914V22.3962H18.7245V19.9099Z" fill="#CBBDF3"/>
<path d="M30.853 39.7188H33.2914V42.205H30.853V39.7188Z" fill="#CBBDF3"/>
<path d="M6.58015 0.101562H42.9973V2.57156H6.58015V0.101562Z" fill="#CBBDF3"/>
<path d="M9.00265 44.675V42.205H6.58015V34.7625H9.00265V32.2925H6.58015V27.3363H9.00265V24.8663H6.58015V19.91H9.00265V17.44H6.58015V10.0138H9.00265V7.52754H6.58015V2.57129H4.14172V7.52754H1.71922V10.0138H4.14172V17.44H1.71922V19.91H4.14172V24.8663H1.71922V27.3363H4.14172V32.2925H1.71922V34.7625H4.14172V42.205H1.71922V44.675H4.14172V49.6313H6.58015V44.675H9.00265Z" fill="#CBBDF3"/>
</g>
<defs>
<clipPath id="clip0_1719_2299">
<rect width="51" height="52" fill="white" transform="translate(0.5 0.101562)"/>
</clipPath>
</defs>
</svg>
