<svg width="20" height="20" viewBox="0 0 20 20" fill="none" xmlns="http://www.w3.org/2000/svg">
<g id="ic/back">
<path id="Vector" d="M12.6045 18.3029L5.58366 11.3029C5.50033 11.2196 5.44144 11.1293 5.40699 11.0321C5.37199 10.9348 5.35449 10.8307 5.35449 10.7196C5.35449 10.6085 5.37199 10.5043 5.40699 10.4071C5.44144 10.3098 5.50033 10.2196 5.58366 10.1362L12.6045 3.1154C12.7989 2.92095 13.042 2.82373 13.3337 2.82373C13.6253 2.82373 13.8753 2.9279 14.0837 3.13623C14.292 3.34456 14.3962 3.58762 14.3962 3.8654C14.3962 4.14318 14.292 4.38623 14.0837 4.59456L7.95866 10.7196L14.0837 16.8446C14.2781 17.039 14.3753 17.2785 14.3753 17.5629C14.3753 17.8479 14.2712 18.0946 14.0628 18.3029C13.8545 18.5112 13.6114 18.6154 13.3337 18.6154C13.0559 18.6154 12.8128 18.5112 12.6045 18.3029Z" fill="#6B6C76"/>
</g>
</svg>
