<svg width="52" height="53" viewBox="0 0 52 53" fill="none" xmlns="http://www.w3.org/2000/svg">
<g clip-path="url(#clip0_1494_6030)">
<path d="M45.8231 49.6489V29.8401H50.6681V5.07512H45.8231V2.58887H43.3847V49.6489H45.8231ZM45.8231 7.54512H48.2456V12.5014H45.8231V7.54512ZM45.8231 14.9714H48.2456V19.9276H45.8231V14.9714ZM45.8231 22.4139H48.2456V27.3539H45.8231V22.4139Z" fill="#734AE8"/>
<path d="M6.95953 49.6494H43.3767V52.1194H6.95953V49.6494Z" fill="#734AE8"/>
<path d="M36.0933 39.7363H38.5317V42.2226H36.0933V39.7363Z" fill="#734AE8"/>
<path d="M31.2324 44.6934H38.5317V47.1634H31.2324V44.6934Z" fill="#734AE8"/>
<path d="M36.1013 27.3537V24.8837H38.5397V12.5012H36.1013V10.0312H16.6575V12.5012H14.243V24.8837H16.6575V27.3537H36.1013ZM19.1039 14.9713H33.6708V17.4575H19.1039V14.9713ZM19.1039 19.9275H33.6708V22.4138H19.1039V19.9275Z" fill="#734AE8"/>
<path d="M31.2324 39.7363H33.6708V42.2226H31.2324V39.7363Z" fill="#734AE8"/>
<path d="M6.95953 0.119141H43.3767V2.58914H6.95953V0.119141Z" fill="#734AE8"/>
<path d="M9.38204 44.6926V42.2226H6.95954V34.7801H9.38204V32.3101H6.95954V27.3539H9.38204V24.8839H6.95954V19.9276H9.38204V17.4576H6.95954V10.0314H9.38204V7.54512H6.95954V2.58887H4.5211V7.54512H2.0986V10.0314H4.5211V17.4576H2.0986V19.9276H4.5211V24.8839H2.0986V27.3539H4.5211V32.3101H2.0986V34.7801H4.5211V42.2226H2.0986V44.6926H4.5211V49.6489H6.95954V44.6926H9.38204Z" fill="#734AE8"/>
</g>
<defs>
<clipPath id="clip0_1494_6030">
<rect width="51" height="52" fill="white" transform="translate(0.879395 0.119141)"/>
</clipPath>
</defs>
</svg>
