<svg width="20" height="20" viewBox="0 0 20 20" fill="none" xmlns="http://www.w3.org/2000/svg">
<path d="M19.2443 10.3052C19.2443 9.52655 19.1811 8.95836 19.0444 8.36914H10.1533V11.8834H15.3722C15.267 12.7568 14.6988 14.072 13.4362 14.9558L13.4185 15.0735L16.2296 17.2513L16.4244 17.2707C18.2131 15.6188 19.2443 13.1882 19.2443 10.3052Z" fill="#4285F4"/>
<path d="M10.1535 19.5646C12.7104 19.5646 14.8568 18.7228 16.4246 17.2709L13.4364 14.956C12.6367 15.5136 11.5635 15.9029 10.1535 15.9029C7.64933 15.9029 5.52391 14.251 4.76625 11.9678L4.6552 11.9772L1.73207 14.2394L1.69385 14.3457C3.25109 17.4391 6.44978 19.5646 10.1535 19.5646Z" fill="#34A853"/>
<path d="M4.76608 11.9678C4.56617 11.3785 4.45047 10.7472 4.45047 10.0948C4.45047 9.44243 4.56617 8.81114 4.75556 8.22191L4.75027 8.09642L1.79052 5.79785L1.69368 5.84391C1.05187 7.12761 0.683594 8.56915 0.683594 10.0948C0.683594 11.6205 1.05187 13.062 1.69368 14.3457L4.76608 11.9678Z" fill="#FBBC05"/>
<path d="M10.1535 4.28663C11.9317 4.28663 13.1312 5.05473 13.8152 5.69661L16.4877 3.08714C14.8464 1.56146 12.7104 0.625 10.1535 0.625C6.44978 0.625 3.25109 2.75042 1.69385 5.84386L4.75573 8.22186C5.52391 5.9386 7.64933 4.28663 10.1535 4.28663Z" fill="#EB4335"/>
</svg>
