<svg width="175" height="39" viewBox="0 0 175 39" fill="none" xmlns="http://www.w3.org/2000/svg">
<path d="M33.464 5.048V0.535997H0.824V5.048H14.648V38.984H19.688V5.048H33.464ZM69.7453 5.048V0.535997H37.1053V5.048H50.9293V38.984H55.9693V5.048H69.7453Z" fill="url(#paint0_linear_28_58)"/>
<path d="M107.779 9.152L100.939 32.336L94.0985 9.152H90.0665L83.2625 32.264L76.4225 9.152H72.4985L81.2465 37.988H85.0625L92.0465 14.984L98.9945 37.988H102.811L111.595 9.152H107.779ZM122.302 16.892C116.182 16.892 111.754 21.5 111.754 27.692C111.754 33.884 116.182 38.492 122.302 38.492C128.386 38.492 132.814 33.884 132.814 27.692C132.814 21.5 128.386 16.892 122.302 16.892ZM122.302 20.168C126.37 20.168 129.178 23.408 129.178 27.692C129.178 31.976 126.37 35.216 122.302 35.216C118.198 35.216 115.39 31.976 115.39 27.692C115.39 23.408 118.198 20.168 122.302 20.168ZM137.549 17.396V37.988H141.257V27.332C141.257 23.588 144.209 20.204 148.421 20.204C149.681 20.204 150.689 20.42 151.481 20.78V17.252C150.761 17 149.933 16.892 148.673 16.892C144.641 16.892 142.157 19.016 141.257 20.564V17.396H137.549ZM163.18 38.492C166.924 38.492 169.444 36.692 170.488 34.928V37.988H174.196V8.252H170.488V20.456C169.444 18.692 166.924 16.892 163.18 16.892C157.348 16.892 152.992 21.536 152.992 27.692C152.992 33.848 157.348 38.492 163.18 38.492ZM163.504 35.216C159.364 35.216 156.628 31.976 156.628 27.692C156.628 23.408 159.364 20.168 163.504 20.168C167.68 20.168 170.56 23.408 170.56 27.692C170.56 31.976 167.68 35.216 163.504 35.216Z" fill="url(#paint1_linear_28_58)"/>
<defs>
<linearGradient id="paint0_linear_28_58" x1="88.5" y1="-3" x2="88.5" y2="45" gradientUnits="userSpaceOnUse">
<stop stop-color="#5C369A"/>
<stop offset="1" stop-color="#B385FF"/>
</linearGradient>
<linearGradient id="paint1_linear_28_58" x1="88.5" y1="-3" x2="88.5" y2="45" gradientUnits="userSpaceOnUse">
<stop stop-color="#57B587"/>
<stop offset="1" stop-color="#575AB5"/>
</linearGradient>
</defs>
</svg>
