<svg
        xmlns="http://www.w3.org/2000/svg"
        width="25"
        height="24"
        viewBox="0 0 25 24"
        fill="none"
      >
        <path
          d="M2.81661 12.7132C2.68042 12.4975 2.61233 12.3897 2.57421 12.2234C2.54558 12.0985 2.54558 11.9015 2.57421 11.7766C2.61233 11.6103 2.68042 11.5025 2.81661 11.2868C3.94201 9.50484 7.29188 5 12.3969 5C17.5019 5 20.8518 9.50484 21.9772 11.2868C22.1134 11.5025 22.1815 11.6103 22.2196 11.7766C22.2482 11.9015 22.2482 12.0985 22.2196 12.2234C22.1815 12.3897 22.1134 12.4975 21.9772 12.7132C20.8518 14.4952 17.5019 19 12.3969 19C7.29188 19 3.94201 14.4952 2.81661 12.7132Z"
          stroke="#C5C6D0"
          strokeWidth="1.5"
          strokeLinecap="round"
          strokeLinejoin="round"
        />
        <path
          d="M12.3969 15C14.0537 15 15.3969 13.6569 15.3969 12C15.3969 10.3431 14.0537 9 12.3969 9C10.74 9 9.39689 10.3431 9.39689 12C9.39689 13.6569 10.74 15 12.3969 15Z"
          stroke="#C5C6D0"
          strokeWidth="1.5"
          strokeLinecap="round"
          strokeLinejoin="round"
        />
      </svg>