<svg
        xmlns="http://www.w3.org/2000/svg"
        width="25"
        height="24"
        viewBox="0 0 25 24"
        fill="none"
      >
        <path
          d="M11.1902 5.09232C11.5966 5.03223 12.0159 5 12.4477 5C17.5527 5 20.9026 9.50484 22.028 11.2868C22.1642 11.5025 22.2323 11.6103 22.2704 11.7767C22.299 11.9016 22.299 12.0987 22.2704 12.2236C22.2322 12.3899 22.1636 12.4985 22.0265 12.7156C21.7266 13.1901 21.2694 13.8571 20.6638 14.5805M7.17159 6.71504C5.00951 8.1817 3.54172 10.2194 2.86837 11.2853C2.73155 11.5019 2.66314 11.6102 2.625 11.7765C2.59636 11.9014 2.59635 12.0984 2.62498 12.2234C2.6631 12.3897 2.7312 12.4975 2.8674 12.7132C3.99281 14.4952 7.34268 19 12.4477 19C14.5061 19 16.2791 18.2676 17.7361 17.2766M3.44768 3L21.4477 21M10.3264 9.87868C9.78347 10.4216 9.44768 11.1716 9.44768 12C9.44768 13.6569 10.7908 15 12.4477 15C13.2761 15 14.0261 14.6642 14.569 14.1213"
          stroke="#C5C6D0"
          strokeWidth="1.5"
          strokeLinecap="round"
          strokeLinejoin="round"
        />
      </svg>